<svg width="38" height="36" viewBox="0 0 38 36" fill="none" xmlns="http://www.w3.org/2000/svg">
<g clip-path="url(#clip0_46_55)">
<path d="M6.39355 33.1503H6.8765V34.321H8.02086V33.1503H8.5038V35.9386H8.02086V34.7513H6.8765V35.9386H6.39355V33.1503Z" fill="#3E3934"/>
<mask id="mask0_46_55" style="mask-type:luminance" maskUnits="userSpaceOnUse" x="0" y="0" width="38" height="38">
<path d="M0.0185547 37.756H37.9807V0.0109253H0.0185547V37.756Z" fill="white"/>
</mask>
<g mask="url(#mask0_46_55)">
<path d="M11.2701 34.5599V34.5321C11.2701 33.9346 10.9372 33.5322 10.4752 33.5322C10.0176 33.5322 9.68907 33.927 9.68907 34.528V34.5564C9.68907 35.1533 10.0256 35.5557 10.4839 35.5557C10.9415 35.5557 11.2701 35.1609 11.2701 34.5599ZM9.18945 34.5682V34.528C9.18945 33.6994 9.7218 33.1061 10.4839 33.1061C11.241 33.1061 11.7697 33.6959 11.7697 34.5203V34.5599C11.7697 35.3885 11.2367 35.9818 10.4752 35.9818C9.71809 35.9818 9.18945 35.392 9.18945 34.5682Z" fill="#3E3934"/>
<path d="M12.502 33.15H13.0053L13.755 34.4325L14.4998 33.15H15.0074V35.9383H14.5288V33.9668L13.755 35.2569H13.742L12.9719 33.9745V35.9383H12.502V33.15Z" fill="#3E3934"/>
<path d="M16.0303 33.15H17.8657V33.5679H16.5089V34.3249H17.7119V34.7433H16.5089V35.5199H17.8867V35.9383H16.0303V33.15Z" fill="#3E3934"/>
<path d="M18.5391 35.5715L18.8306 35.2251C19.0467 35.4119 19.2882 35.5555 19.5963 35.5555C19.8749 35.5555 20.054 35.4083 20.054 35.2009V35.1974C20.054 35.0218 19.9582 34.9066 19.4963 34.7429C18.943 34.5437 18.6558 34.3487 18.6558 33.9025V33.8948C18.6558 33.4368 19.0381 33.1141 19.5791 33.1141C19.9162 33.1141 20.2287 33.2176 20.4955 33.441L20.2201 33.795C20.0206 33.6401 19.8001 33.532 19.5673 33.532C19.3049 33.532 19.1424 33.6714 19.1424 33.8546V33.8588C19.1424 34.0538 19.2505 34.1578 19.7458 34.341C20.2868 34.5396 20.5363 34.7547 20.5363 35.1607V35.1696C20.5363 35.6589 20.1373 35.9739 19.592 35.9739C19.2172 35.9739 18.8553 35.8504 18.5391 35.5715Z" fill="#3E3934"/>
<path d="M21.7804 33.58H21.0146V33.1498H23.0292V33.58H22.2634V35.9381H21.7804V33.58Z" fill="#3E3934"/>
<path d="M25.4259 34.5599V34.5321C25.4259 33.9346 25.0931 33.5322 24.6311 33.5322C24.1735 33.5322 23.8443 33.927 23.8443 34.528V34.5564C23.8443 35.1533 24.1815 35.5557 24.6398 35.5557C25.0974 35.5557 25.4259 35.1609 25.4259 34.5599ZM23.3447 34.5682V34.528C23.3447 33.6994 23.8777 33.1061 24.6398 33.1061C25.3969 33.1061 25.9256 33.6959 25.9256 34.5203V34.5599C25.9256 35.3885 25.3926 35.9818 24.6311 35.9818C23.874 35.9818 23.3447 35.392 23.3447 34.5682Z" fill="#3E3934"/>
<path d="M27.5352 34.54C27.91 34.54 28.1175 34.3486 28.1175 34.0578V34.0501C28.1175 33.7357 27.9057 33.572 27.5438 33.572H27.0145V34.54H27.5352ZM26.5322 33.15H27.5852C27.9181 33.15 28.1886 33.2458 28.3633 33.413C28.5177 33.5602 28.6048 33.7712 28.6048 34.0265V34.0424C28.6048 34.4721 28.3553 34.7392 28.0014 34.8586L28.6882 35.9383H28.1305L27.5105 34.9502C27.5018 34.9543 27.4895 34.9543 27.4814 34.9543H27.0145V35.9383H26.5322V33.15Z" fill="#3E3934"/>
<path d="M29.4619 33.15H31.2973V33.5679H29.9405V34.3249H31.1429V34.7433H29.9405V35.5199H31.3183V35.9383H29.4619V33.15Z" fill="#3E3934"/>
<path d="M35.7874 25.5007V26.0728H36.6841L35.3458 29.3705L33.9359 26.0728H34.677V25.5007H31.6719V26.0728H32.1851L34.4917 31.4821C34.178 32.2592 34.0075 32.5588 33.637 33.0222C33.2936 33.4388 33.041 33.6616 32.5476 33.9742L33.4499 34.7342C33.5499 34.6149 33.6308 34.5132 33.6944 34.4258C34.1496 33.8259 34.6622 32.8862 35.0185 31.9868L37.3968 26.0728H37.9804V25.5007H35.7874Z" fill="#3E3934"/>
<path d="M29.6906 27.331C29.6906 26.5131 29.2774 25.941 28.6938 25.941C27.9392 25.941 27.3414 26.6219 27.2129 27.6578H29.6906V27.331ZM28.6228 31.8686C26.7145 31.8686 25.4473 30.5738 25.4473 28.6389C25.4473 26.6632 26.7429 25.3554 28.708 25.3554C30.36 25.3554 31.4562 26.3358 31.4562 27.8351V28.3528H27.1987C27.1987 30.0425 27.996 31.0921 29.2774 31.0921C29.8049 31.0921 30.1075 30.9709 31.2549 30.3894L31.5131 30.955C30.118 31.7049 29.619 31.8686 28.6228 31.8686Z" fill="#3E3934"/>
<path d="M2.63582 28.0804L3.9883 24.674L5.25988 28.0804H2.63582ZM8.16494 31.1187L4.84488 22.4117H4.02845L0.574369 31.1187H0.0185547V31.6913H2.06704V31.1187H1.44453L2.31469 28.9113H5.56805L6.39807 31.1187H5.97874V31.6913H8.72755V31.1187H8.16494Z" fill="#3E3934"/>
<path d="M12.0621 27.9442C10.5528 27.3716 10.3249 27.2085 10.3249 26.7044C10.3249 26.241 10.738 25.9414 11.3507 25.9414C12.0621 25.9414 12.8421 26.3308 12.8538 26.8403C12.8551 26.9006 12.8532 26.978 12.8452 27.0513H13.5505L13.6523 25.5182H12.9452L12.931 25.8185C12.5179 25.4911 12.0337 25.3551 11.3358 25.3551C9.96915 25.3551 9.05762 26.1045 9.05762 27.2351C9.05762 28.1889 9.5702 28.7344 10.9517 29.2385C12.3468 29.7426 12.7025 30.015 12.7025 30.5599C12.7025 30.9961 12.2758 31.2827 11.5921 31.2827C10.709 31.2827 9.91172 30.7922 9.91172 30.2467V29.9719H9.12926V31.6911H9.82649V31.3229C10.2539 31.6911 10.8375 31.8684 11.6632 31.8684C13.1015 31.8684 13.9278 31.1734 13.9278 29.9749C13.9278 28.9932 13.4578 28.4755 12.0621 27.9442Z" fill="#3E3934"/>
<path d="M20.8564 27.0585C20.8564 25.9546 20.2011 25.3553 19.0055 25.3553C18.1082 25.3553 17.6098 25.6 16.6847 26.4995V21.4743H16.2443L14.3805 22.06V22.6161H15.0178V31.1186H14.3682V31.6913H17.3282V31.1186H16.6847V27.2222C17.624 26.3771 17.8519 26.2412 18.4077 26.2412C18.9907 26.2412 19.1908 26.4995 19.1908 27.3174V31.1186H18.5473V31.6913H21.5011V31.1186H20.8564V27.0585Z" fill="#3E3934"/>
</g>
<path d="M24.4272 31.1186V21.4743H24.0412L22.1841 22.0576V22.6161H22.761V31.1186H22.1162V31.6913H25.0738V31.1186H24.4272Z" fill="#3E3934"/>
<path d="M26.1764 15.7996C26.1764 15.9796 26.133 16.0246 25.9652 16.0246H12.5774C12.3835 16.0246 12.3835 15.8746 12.3835 15.8146V10.6407C12.3835 10.3756 12.3885 10.3656 12.5682 10.1856H12.575C12.751 10.0056 18.9786 4.01114 19.0422 3.95014C19.1503 3.84511 19.2145 3.79511 19.2849 3.79511C19.3553 3.79511 19.4171 3.85011 19.4967 3.92511C19.6783 4.10014 25.9862 10.1846 26.0498 10.2461C26.1653 10.3561 26.1764 10.3961 26.1764 10.5211V15.8036L26.1764 15.7996ZM28.8999 9.27806L19.3009 0.0183258C19.291 0.0183258 19.2733 0.0183258 19.2628 0.0183258L9.66018 9.27806C9.65524 9.28268 9.65234 9.27806 9.65234 9.27806V18.5938C9.65234 18.5938 9.66488 18.6438 9.67951 18.6438H28.8817C28.8963 18.6438 28.9083 18.6438 28.9083 18.5938V9.27806C28.9083 9.27806 28.9059 9.27806 28.9005 9.27806" fill="#F68D2D"/>
<mask id="mask1_46_55" style="mask-type:luminance" maskUnits="userSpaceOnUse" x="0" y="0" width="38" height="38">
<path d="M0.0185547 37.756H37.9807V0.0109253H0.0185547V37.756Z" fill="white"/>
</mask>
<g mask="url(#mask1_46_55)">
<path d="M37.088 31.02C37.0651 31.0117 37.0336 31.0076 36.9922 31.0076H36.9515V31.1831H37.0157C37.0546 31.1831 37.0849 31.176 37.1065 31.1613C37.1281 31.1465 37.1386 31.1223 37.1386 31.0892C37.1386 31.0561 37.1219 31.033 37.088 31.02ZM36.786 31.5064V30.9006C36.8249 30.9006 36.8836 30.9006 36.962 30.9012C37.0404 30.9012 37.0837 30.9018 37.0923 30.9024C37.1429 30.9054 37.1837 30.916 37.2177 30.9337C37.2739 30.9627 37.3017 31.0112 37.3017 31.0779C37.3017 31.1288 37.2868 31.166 37.2572 31.1879C37.2269 31.2109 37.1911 31.2245 37.1479 31.2286C37.1874 31.2369 37.2177 31.2487 37.2374 31.2641C37.2745 31.2925 37.293 31.338 37.293 31.4V31.4538C37.293 31.4597 37.2936 31.4656 37.2942 31.4721C37.2955 31.478 37.2973 31.4834 37.2992 31.4893L37.3054 31.5064H37.1473C37.1417 31.4875 37.138 31.4597 37.1361 31.4231C37.1349 31.3858 37.1306 31.3616 37.1256 31.3486C37.1176 31.3273 37.1022 31.3126 37.0793 31.3043C37.067 31.299 37.0484 31.296 37.0225 31.2942L36.9861 31.2925H36.9515V31.5064H36.786ZM36.7008 30.8859C36.6094 30.9745 36.5637 31.0803 36.5637 31.2026C36.5637 31.3291 36.61 31.4367 36.7026 31.5253C36.7946 31.6134 36.9058 31.6583 37.0361 31.6583C37.1652 31.6583 37.277 31.6134 37.369 31.5241C37.461 31.4349 37.5061 31.3273 37.5061 31.2026C37.5061 31.0809 37.461 30.9757 37.3696 30.8859C37.277 30.7949 37.1652 30.7494 37.0361 30.7494C36.9046 30.7494 36.7928 30.7949 36.7008 30.8859ZM37.4357 31.5951C37.3251 31.6979 37.1917 31.7493 37.0361 31.7493C36.8755 31.7493 36.7397 31.6967 36.6297 31.5915C36.5198 31.4857 36.4648 31.3563 36.4648 31.2026C36.4648 31.0431 36.5235 30.9101 36.6433 30.8043C36.7551 30.705 36.8854 30.656 37.0361 30.656C37.1936 30.656 37.3282 30.7092 37.44 30.8161C37.5512 30.9231 37.6074 31.0519 37.6074 31.2026C37.6074 31.3575 37.5499 31.4887 37.4357 31.5951Z" fill="#3E3934"/>
</g>
</g>
<defs>
<clipPath id="clip0_46_55">
<rect width="38" height="36" fill="white"/>
</clipPath>
</defs>
</svg>
