<svg width="39" height="16" viewBox="0 0 39 16" fill="none" xmlns="http://www.w3.org/2000/svg">
<path d="M0.74 8.02C0.74 6.66 1.05333 5.44 1.68 4.36C2.32 3.28 3.18 2.44 4.26 1.84C5.35333 1.22667 6.54667 0.919999 7.84 0.919999C9.32 0.919999 10.6333 1.28667 11.78 2.02C12.94 2.74 13.78 3.76667 14.3 5.1H11.56C11.2 4.36667 10.7 3.82 10.06 3.46C9.42 3.1 8.68 2.92 7.84 2.92C6.92 2.92 6.1 3.12667 5.38 3.54C4.66 3.95333 4.09333 4.54667 3.68 5.32C3.28 6.09333 3.08 6.99333 3.08 8.02C3.08 9.04667 3.28 9.94667 3.68 10.72C4.09333 11.4933 4.66 12.0933 5.38 12.52C6.1 12.9333 6.92 13.14 7.84 13.14C8.68 13.14 9.42 12.96 10.06 12.6C10.7 12.24 11.2 11.6933 11.56 10.96H14.3C13.78 12.2933 12.94 13.32 11.78 14.04C10.6333 14.76 9.32 15.12 7.84 15.12C6.53333 15.12 5.34 14.82 4.26 14.22C3.18 13.6067 2.32 12.76 1.68 11.68C1.05333 10.6 0.74 9.38 0.74 8.02ZM24.4088 7.86C25.1554 7.99333 25.7888 8.38667 26.3088 9.04C26.8288 9.69333 27.0888 10.4333 27.0888 11.26C27.0888 11.9667 26.9021 12.6067 26.5288 13.18C26.1688 13.74 25.6421 14.1867 24.9488 14.52C24.2554 14.84 23.4488 15 22.5288 15H16.9688V1.1H22.2688C23.2154 1.1 24.0288 1.26 24.7088 1.58C25.3888 1.9 25.9021 2.33333 26.2488 2.88C26.5954 3.41333 26.7687 4.01333 26.7687 4.68C26.7687 5.48 26.5554 6.14667 26.1288 6.68C25.7021 7.21333 25.1288 7.60667 24.4088 7.86ZM19.2488 6.94H22.0688C22.8154 6.94 23.3954 6.77333 23.8088 6.44C24.2354 6.09333 24.4488 5.6 24.4488 4.96C24.4488 4.33333 24.2354 3.84667 23.8088 3.5C23.3954 3.14 22.8154 2.96 22.0688 2.96H19.2488V6.94ZM22.3288 13.14C23.1021 13.14 23.7088 12.9533 24.1488 12.58C24.5888 12.2067 24.8088 11.6867 24.8088 11.02C24.8088 10.34 24.5754 9.8 24.1088 9.4C23.6421 9 23.0221 8.8 22.2488 8.8H19.2488V13.14H22.3288ZM30.5264 11.9C31.8064 10.7933 32.8131 9.88667 33.5464 9.18C34.2931 8.46 34.9131 7.71333 35.4064 6.94C35.8997 6.16667 36.1464 5.39333 36.1464 4.62C36.1464 3.82 35.9531 3.19333 35.5664 2.74C35.1931 2.28667 34.5997 2.06 33.7864 2.06C32.9997 2.06 32.3864 2.31333 31.9464 2.82C31.5197 3.31333 31.2931 3.98 31.2664 4.82H29.0664C29.1064 3.3 29.5597 2.14 30.4264 1.34C31.3064 0.526666 32.4197 0.12 33.7664 0.12C35.2197 0.12 36.3531 0.52 37.1664 1.32C37.9931 2.12 38.4064 3.18667 38.4064 4.52C38.4064 5.48 38.1597 6.40667 37.6664 7.3C37.1864 8.18 36.6064 8.97333 35.9264 9.68C35.2597 10.3733 34.4064 11.18 33.3664 12.1L32.4664 12.9H38.8064V14.8H29.0864V13.14L30.5264 11.9Z" fill="black"/>
</svg>
