<svg xmlns="http://www.w3.org/2000/svg" xmlns:xlink="http://www.w3.org/1999/xlink" width="512" zoomAndPan="magnify" viewBox="0 0 384 383.999986" height="512" preserveAspectRatio="xMidYMid meet" version="1.0"><defs><clipPath id="fb6b03feb9"><path d="M 9 168.578125 L 374 168.578125 L 374 321.140625 L 9 321.140625 Z M 9 168.578125 " clip-rule="nonzero"/></clipPath><clipPath id="2a62a8b5bd"><path d="M 9 72.265625 L 90.902344 72.265625 L 90.902344 322 L 9 322 Z M 9 72.265625 " clip-rule="nonzero"/></clipPath><clipPath id="4c5408814a"><path d="M 277.78125 62.285156 L 374 62.285156 L 374 321.460938 L 277.78125 321.460938 Z M 277.78125 62.285156 " clip-rule="nonzero"/></clipPath></defs><g clip-path="url(#fb6b03feb9)"><path fill="#fadd00" d="M 367.863281 310.03125 L 360.074219 310.03125 L 336.40625 279.15625 L 336.40625 252.199219 L 344.722656 252.199219 C 345.429688 252.195312 346.117188 252.070312 346.78125 251.820312 C 347.445312 251.570312 348.046875 251.210938 348.578125 250.742188 C 349.113281 250.273438 349.546875 249.726562 349.882812 249.101562 C 350.21875 248.472656 350.433594 247.808594 350.523438 247.105469 L 365.757812 178.4375 C 365.847656 178.015625 365.894531 177.585938 365.890625 177.148438 C 365.886719 176.714844 365.835938 176.285156 365.738281 175.859375 C 365.636719 175.4375 365.492188 175.027344 365.300781 174.636719 C 365.113281 174.246094 364.878906 173.882812 364.609375 173.542969 C 364.335938 173.203125 364.027344 172.898438 363.6875 172.628906 C 363.347656 172.355469 362.980469 172.128906 362.585938 171.9375 C 362.195312 171.75 361.785156 171.609375 361.363281 171.511719 C 360.9375 171.414062 360.507812 171.367188 360.074219 171.367188 L 360.074219 171.339844 L 339.136719 171.339844 C 339.605469 167.417969 340.148438 163.507812 340.863281 159.699219 C 341.621094 155.601562 342.570312 151.570312 343.625 147.644531 C 347 147.222656 350 145.929688 352.625 143.761719 C 354.800781 141.980469 356.691406 139.933594 358.289062 137.621094 C 359.890625 135.308594 361.144531 132.820312 362.042969 130.15625 C 362.816406 127.667969 363.359375 125.128906 363.664062 122.539062 C 363.96875 119.953125 364.035156 117.359375 363.863281 114.757812 C 363.6875 112.15625 363.277344 109.59375 362.632812 107.070312 C 361.984375 104.546875 361.113281 102.101562 360.015625 99.738281 C 339.746094 107.007812 327.160156 120.910156 328.308594 133.386719 C 328.515625 135.273438 328.988281 137.09375 329.71875 138.847656 C 330.449219 140.601562 331.414062 142.21875 332.609375 143.695312 C 331.410156 148.144531 330.300781 152.78125 329.417969 157.609375 C 329 159.882812 328.664062 162.15625 328.328125 164.429688 C 326.175781 150.542969 322.492188 137.074219 317.285156 124.019531 C 318.472656 122.621094 319.40625 121.070312 320.09375 119.371094 C 320.777344 117.667969 321.179688 115.902344 321.296875 114.074219 C 321.496094 111.269531 321.3125 108.492188 320.75 105.738281 C 320.1875 102.984375 319.269531 100.355469 317.988281 97.855469 C 316.84375 95.113281 315.367188 92.5625 313.558594 90.203125 C 311.753906 87.84375 309.675781 85.753906 307.328125 83.933594 C 304.65625 81.949219 301.753906 80.402344 298.621094 79.289062 C 295.484375 78.175781 292.257812 77.546875 288.933594 77.398438 C 286.523438 82.507812 285.167969 87.882812 284.863281 93.519531 C 284.570312 98.648438 285.195312 103.660156 286.746094 108.554688 C 287.507812 111.699219 288.761719 114.632812 290.515625 117.355469 C 292.265625 120.074219 294.417969 122.433594 296.964844 124.429688 C 299.839844 126.4375 303.003906 127.753906 306.457031 128.375 C 311.96875 142.21875 315.601562 156.535156 317.363281 171.332031 L 301.058594 171.332031 C 300.675781 171.332031 300.292969 171.371094 299.917969 171.445312 C 299.542969 171.523438 299.175781 171.632812 298.824219 171.78125 C 298.46875 171.929688 298.132812 172.109375 297.8125 172.320312 C 297.496094 172.535156 297.199219 172.777344 296.929688 173.046875 C 296.65625 173.320312 296.414062 173.613281 296.203125 173.933594 C 295.988281 174.25 295.808594 174.585938 295.660156 174.941406 C 295.511719 175.296875 295.402344 175.660156 295.324219 176.035156 C 295.25 176.414062 295.210938 176.792969 295.210938 177.175781 C 295.210938 177.785156 295.300781 178.378906 295.480469 178.960938 L 310.714844 247.59375 C 310.855469 248.242188 311.101562 248.847656 311.449219 249.414062 C 311.800781 249.976562 312.230469 250.464844 312.746094 250.882812 C 313.265625 251.296875 313.835938 251.617188 314.460938 251.835938 C 315.085938 252.058594 315.730469 252.167969 316.390625 252.171875 L 316.390625 252.199219 L 324.707031 252.199219 L 324.707031 279.15625 L 301.039062 310.03125 L 277.578125 310.03125 C 274.28125 298.527344 270.988281 287.035156 267.6875 275.546875 C 268.742188 275.300781 269.773438 274.964844 270.773438 274.542969 C 271.773438 274.125 272.730469 273.621094 273.644531 273.042969 C 274.5625 272.460938 275.421875 271.804688 276.226562 271.082031 C 277.035156 270.355469 277.773438 269.566406 278.449219 268.714844 C 279.121094 267.867188 279.71875 266.964844 280.242188 266.015625 C 280.765625 265.066406 281.207031 264.078125 281.5625 263.054688 C 281.917969 262.027344 282.1875 260.980469 282.371094 259.910156 C 282.550781 258.84375 282.640625 257.765625 282.644531 256.679688 L 282.644531 228.273438 C 282.648438 227.769531 282.472656 227.339844 282.125 226.980469 L 282.097656 226.953125 C 281.738281 226.601562 281.308594 226.429688 280.808594 226.4375 L 266.015625 226.4375 C 265.511719 226.433594 265.082031 226.605469 264.722656 226.953125 L 264.695312 226.980469 C 264.34375 227.339844 264.171875 227.769531 264.179688 228.273438 L 264.179688 251.671875 C 264.179688 252.054688 264.140625 252.433594 264.066406 252.8125 C 263.992188 253.1875 263.882812 253.554688 263.734375 253.910156 C 263.585938 254.265625 263.40625 254.601562 263.195312 254.921875 C 262.980469 255.242188 262.738281 255.539062 262.46875 255.8125 C 262.195312 256.082031 261.902344 256.328125 261.582031 256.539062 C 261.261719 256.753906 260.925781 256.9375 260.570312 257.082031 C 260.21875 257.230469 259.851562 257.34375 259.476562 257.421875 C 259.097656 257.496094 258.71875 257.535156 258.332031 257.535156 L 97.304688 257.535156 C 96.921875 257.539062 96.539062 257.503906 96.160156 257.429688 C 95.78125 257.355469 95.414062 257.242188 95.058594 257.097656 C 94.699219 256.949219 94.363281 256.769531 94.039062 256.554688 C 93.71875 256.34375 93.421875 256.097656 93.152344 255.828125 C 92.878906 255.554688 92.632812 255.257812 92.421875 254.9375 C 92.207031 254.613281 92.027344 254.277344 91.878906 253.917969 C 91.734375 253.5625 91.621094 253.195312 91.546875 252.816406 C 91.476562 252.4375 91.4375 252.054688 91.441406 251.671875 L 91.441406 228.277344 C 91.445312 227.773438 91.273438 227.34375 90.921875 226.984375 L 90.894531 226.957031 C 90.535156 226.605469 90.105469 226.433594 89.605469 226.441406 L 74.824219 226.441406 C 74.324219 226.4375 73.894531 226.609375 73.535156 226.957031 L 73.507812 226.984375 C 73.15625 227.34375 72.984375 227.773438 72.992188 228.277344 L 72.992188 256.691406 C 72.996094 257.785156 73.089844 258.871094 73.277344 259.945312 C 73.464844 261.023438 73.742188 262.078125 74.109375 263.109375 C 74.472656 264.136719 74.921875 265.132812 75.453125 266.085938 C 75.984375 267.042969 76.59375 267.945312 77.277344 268.796875 C 77.964844 269.648438 78.714844 270.4375 79.53125 271.164062 C 80.347656 271.890625 81.222656 272.542969 82.148438 273.121094 C 83.074219 273.703125 84.046875 274.199219 85.054688 274.613281 C 86.066406 275.03125 87.105469 275.359375 88.171875 275.601562 C 84.800781 287.078125 81.429688 298.554688 78.0625 310.03125 L 51.1875 310.03125 L 51.1875 127.820312 L 74.847656 127.820312 C 75.089844 127.820312 75.328125 127.804688 75.570312 127.773438 C 75.808594 127.742188 76.046875 127.695312 76.28125 127.636719 C 76.515625 127.574219 76.742188 127.5 76.96875 127.414062 C 77.191406 127.324219 77.410156 127.222656 77.625 127.105469 C 77.835938 126.992188 78.039062 126.863281 78.238281 126.71875 C 78.433594 126.578125 78.621094 126.425781 78.796875 126.261719 C 78.972656 126.097656 79.140625 125.921875 79.296875 125.738281 C 79.453125 125.554688 79.59375 125.359375 79.726562 125.15625 C 79.859375 124.953125 79.976562 124.742188 80.082031 124.527344 C 80.1875 124.308594 80.277344 124.085938 80.355469 123.855469 C 80.433594 123.628906 80.496094 123.394531 80.546875 123.15625 C 80.59375 122.921875 80.628906 122.683594 80.648438 122.441406 C 80.667969 122.199219 80.671875 121.957031 80.660156 121.71875 C 80.648438 121.476562 80.621094 121.234375 80.582031 120.996094 C 80.542969 120.757812 80.484375 120.523438 80.414062 120.292969 C 80.347656 120.0625 80.261719 119.835938 80.164062 119.613281 L 65.023438 85.679688 C 64.824219 85.109375 64.539062 84.582031 64.175781 84.09375 C 63.8125 83.609375 63.382812 83.191406 62.886719 82.839844 C 62.390625 82.488281 61.855469 82.21875 61.277344 82.035156 C 60.699219 81.851562 60.109375 81.757812 59.503906 81.753906 L 31.175781 81.753906 C 30.042969 81.761719 28.996094 82.074219 28.039062 82.683594 C 27.058594 83.308594 26.332031 84.152344 25.859375 85.21875 L 10.710938 119.152344 C 10.222656 120.03125 9.980469 120.976562 9.984375 121.980469 C 9.984375 122.367188 10.019531 122.746094 10.09375 123.125 C 10.171875 123.5 10.28125 123.867188 10.429688 124.222656 C 10.574219 124.578125 10.753906 124.914062 10.96875 125.234375 C 11.179688 125.554688 11.421875 125.851562 11.695312 126.121094 C 11.964844 126.394531 12.261719 126.636719 12.578125 126.851562 C 12.898438 127.066406 13.234375 127.246094 13.589844 127.394531 C 13.945312 127.542969 14.308594 127.65625 14.6875 127.730469 C 15.0625 127.808594 15.445312 127.847656 15.828125 127.847656 L 39.492188 127.847656 L 39.492188 310.03125 L 15.828125 310.03125 C 15.449219 310.039062 15.078125 310.085938 14.707031 310.164062 C 14.339844 310.246094 13.980469 310.363281 13.632812 310.515625 C 13.289062 310.664062 12.957031 310.847656 12.648438 311.0625 C 12.335938 311.277344 12.050781 311.519531 11.785156 311.792969 C 11.519531 312.0625 11.285156 312.355469 11.078125 312.671875 C 10.871094 312.988281 10.695312 313.320312 10.554688 313.671875 C 10.410156 314.019531 10.304688 314.382812 10.230469 314.753906 C 10.15625 315.125 10.121094 315.5 10.121094 315.875 C 10.121094 316.253906 10.15625 316.628906 10.230469 317 C 10.304688 317.371094 10.410156 317.730469 10.554688 318.082031 C 10.695312 318.433594 10.871094 318.765625 11.078125 319.082031 C 11.285156 319.398438 11.519531 319.691406 11.785156 319.960938 C 12.050781 320.230469 12.335938 320.476562 12.648438 320.691406 C 12.957031 320.90625 13.289062 321.085938 13.632812 321.238281 C 13.980469 321.390625 14.339844 321.503906 14.707031 321.585938 C 15.078125 321.667969 15.449219 321.714844 15.828125 321.722656 L 367.863281 321.722656 C 368.253906 321.734375 368.640625 321.703125 369.023438 321.636719 C 369.410156 321.566406 369.78125 321.460938 370.144531 321.320312 C 370.507812 321.175781 370.855469 321 371.179688 320.789062 C 371.507812 320.578125 371.8125 320.335938 372.089844 320.0625 C 372.371094 319.789062 372.621094 319.492188 372.839844 319.171875 C 373.058594 318.847656 373.246094 318.507812 373.394531 318.148438 C 373.546875 317.789062 373.660156 317.417969 373.738281 317.035156 C 373.816406 316.652344 373.855469 316.265625 373.855469 315.875 C 373.855469 315.488281 373.816406 315.101562 373.738281 314.71875 C 373.660156 314.335938 373.546875 313.964844 373.394531 313.605469 C 373.246094 313.246094 373.058594 312.90625 372.839844 312.582031 C 372.621094 312.261719 372.371094 311.964844 372.089844 311.691406 C 371.8125 311.417969 371.507812 311.175781 371.179688 310.964844 C 370.855469 310.753906 370.507812 310.574219 370.144531 310.433594 C 369.78125 310.289062 369.410156 310.183594 369.023438 310.117188 C 368.640625 310.050781 368.253906 310.019531 367.863281 310.03125 Z M 90.222656 310.03125 C 93.660156 298.710938 97.09375 287.394531 100.527344 276.074219 L 255.5 276.074219 C 258.804688 287.394531 262.113281 298.710938 265.421875 310.03125 Z M 324.71875 310.03125 L 315.746094 310.03125 L 324.71875 298.328125 Z M 336.402344 310.03125 L 336.402344 298.328125 L 345.375 310.03125 Z M 171.980469 245.832031 L 103.148438 245.832031 L 103.148438 235.566406 L 171.980469 235.566406 Z M 183.671875 235.566406 L 252.492188 235.566406 L 252.492188 245.832031 L 183.671875 245.832031 Z M 252.492188 223.878906 L 183.671875 223.878906 L 183.671875 187.933594 C 183.675781 187.613281 183.707031 187.296875 183.769531 186.984375 C 183.832031 186.667969 183.925781 186.363281 184.050781 186.066406 C 184.171875 185.769531 184.324219 185.488281 184.5 185.222656 C 184.679688 184.957031 184.878906 184.710938 185.105469 184.484375 C 185.332031 184.257812 185.578125 184.054688 185.847656 183.875 C 186.113281 183.695312 186.394531 183.546875 186.6875 183.421875 C 186.984375 183.296875 187.289062 183.203125 187.605469 183.140625 C 187.917969 183.078125 188.234375 183.042969 188.554688 183.042969 L 247.597656 183.042969 C 248.246094 183.039062 248.867188 183.160156 249.464844 183.40625 C 250.0625 183.652344 250.589844 184.003906 251.050781 184.460938 L 251.078125 184.488281 C 251.535156 184.945312 251.886719 185.472656 252.128906 186.070312 C 252.375 186.667969 252.496094 187.292969 252.496094 187.9375 Z M 171.96875 223.878906 L 103.148438 223.878906 L 103.148438 187.925781 C 103.148438 187.277344 103.277344 186.652344 103.527344 186.054688 C 103.777344 185.457031 104.132812 184.929688 104.59375 184.472656 L 104.804688 184.253906 C 105.730469 183.441406 106.808594 183.035156 108.042969 183.035156 L 167.085938 183.035156 C 167.40625 183.035156 167.722656 183.070312 168.039062 183.132812 C 168.351562 183.195312 168.65625 183.289062 168.953125 183.414062 C 169.246094 183.535156 169.527344 183.6875 169.792969 183.867188 C 170.058594 184.042969 170.304688 184.246094 170.53125 184.472656 C 170.757812 184.699219 170.960938 184.945312 171.140625 185.210938 C 171.316406 185.476562 171.46875 185.757812 171.589844 186.054688 C 171.714844 186.347656 171.808594 186.652344 171.871094 186.96875 C 171.933594 187.28125 171.96875 187.597656 171.96875 187.917969 Z M 201.539062 112.707031 L 100.042969 112.707031 L 100.042969 73.453125 L 135.070312 54.664062 Z M 255.601562 112.707031 L 219.257812 112.707031 L 180.714844 79.042969 L 220.007812 54.355469 L 255.601562 73.453125 Z M 139.925781 43.425781 L 171.542969 71.03125 L 216.472656 42.804688 C 216.914062 42.503906 217.386719 42.265625 217.894531 42.09375 C 218.402344 41.921875 218.921875 41.820312 219.457031 41.792969 C 219.992188 41.761719 220.523438 41.808594 221.046875 41.921875 C 221.570312 42.039062 222.066406 42.226562 222.539062 42.480469 L 255.601562 60.210938 L 255.601562 -17.835938 L 100.042969 -17.835938 L 100.042969 60.214844 L 133.105469 42.480469 C 133.652344 42.1875 134.226562 41.984375 134.835938 41.875 C 135.445312 41.765625 136.054688 41.753906 136.667969 41.839844 C 137.28125 41.925781 137.867188 42.101562 138.421875 42.375 C 138.980469 42.644531 139.480469 42.996094 139.925781 43.425781 Z M 159.359375 -0.0976562 L 159.386719 -0.121094 C 159.988281 -0.726562 160.621094 -1.296875 161.277344 -1.839844 C 161.9375 -2.382812 162.625 -2.894531 163.332031 -3.367188 C 164.042969 -3.84375 164.773438 -4.28125 165.527344 -4.6875 C 166.277344 -5.089844 167.050781 -5.453125 167.839844 -5.78125 C 168.628906 -6.109375 169.429688 -6.398438 170.246094 -6.644531 C 171.066406 -6.894531 171.890625 -7.101562 172.730469 -7.269531 C 173.566406 -7.433594 174.410156 -7.5625 175.261719 -7.644531 C 176.109375 -7.726562 176.960938 -7.769531 177.816406 -7.769531 C 178.671875 -7.769531 179.523438 -7.726562 180.371094 -7.644531 C 181.222656 -7.5625 182.066406 -7.433594 182.902344 -7.269531 C 183.742188 -7.101562 184.570312 -6.894531 185.386719 -6.644531 C 186.203125 -6.398438 187.003906 -6.109375 187.792969 -5.78125 C 188.582031 -5.453125 189.355469 -5.089844 190.105469 -4.6875 C 190.859375 -4.28125 191.589844 -3.84375 192.300781 -3.367188 C 193.011719 -2.894531 193.695312 -2.382812 194.355469 -1.839844 C 195.011719 -1.296875 195.644531 -0.726562 196.246094 -0.121094 L 196.273438 -0.0976562 C 196.878906 0.507812 197.453125 1.136719 197.996094 1.796875 C 198.539062 2.457031 199.046875 3.140625 199.523438 3.851562 C 200 4.5625 200.4375 5.292969 200.839844 6.046875 C 201.246094 6.796875 201.609375 7.570312 201.9375 8.359375 C 202.265625 9.148438 202.550781 9.949219 202.800781 10.765625 C 203.050781 11.585938 203.257812 12.410156 203.421875 13.25 C 203.589844 14.085938 203.714844 14.929688 203.800781 15.78125 C 203.882812 16.632812 203.925781 17.484375 203.925781 18.335938 C 203.925781 19.191406 203.882812 20.042969 203.800781 20.894531 C 203.714844 21.742188 203.589844 22.585938 203.421875 23.425781 C 203.257812 24.261719 203.050781 25.089844 202.800781 25.90625 C 202.550781 26.722656 202.265625 27.527344 201.9375 28.316406 C 201.609375 29.105469 201.246094 29.875 200.839844 30.628906 C 200.4375 31.382812 200 32.113281 199.523438 32.820312 C 199.046875 33.53125 198.539062 34.214844 197.996094 34.875 C 197.453125 35.535156 196.878906 36.167969 196.273438 36.769531 L 196.246094 36.796875 C 195.644531 37.402344 195.011719 37.976562 194.351562 38.519531 C 193.695312 39.058594 193.007812 39.570312 192.300781 40.042969 C 191.589844 40.519531 190.859375 40.957031 190.105469 41.359375 C 189.351562 41.765625 188.582031 42.128906 187.792969 42.457031 C 187.003906 42.785156 186.203125 43.070312 185.386719 43.320312 C 184.566406 43.566406 183.742188 43.773438 182.902344 43.941406 C 182.066406 44.109375 181.222656 44.234375 180.371094 44.316406 C 179.523438 44.402344 178.671875 44.445312 177.816406 44.445312 C 176.960938 44.445312 176.109375 44.402344 175.261719 44.316406 C 174.410156 44.234375 173.566406 44.109375 172.730469 43.941406 C 171.890625 43.773438 171.066406 43.566406 170.25 43.320312 C 169.429688 43.070312 168.628906 42.785156 167.839844 42.457031 C 167.050781 42.128906 166.28125 41.765625 165.527344 41.359375 C 164.773438 40.957031 164.042969 40.519531 163.332031 40.042969 C 162.625 39.570312 161.9375 39.058594 161.28125 38.519531 C 160.621094 37.976562 159.988281 37.402344 159.386719 36.796875 L 159.359375 36.769531 C 158.753906 36.167969 158.179688 35.535156 157.636719 34.875 C 157.09375 34.214844 156.585938 33.53125 156.113281 32.820312 C 155.636719 32.113281 155.199219 31.378906 154.792969 30.628906 C 154.390625 29.875 154.027344 29.105469 153.699219 28.316406 C 153.371094 27.527344 153.085938 26.722656 152.835938 25.90625 C 152.585938 25.089844 152.378906 24.261719 152.214844 23.425781 C 152.046875 22.585938 151.921875 21.742188 151.835938 20.894531 C 151.753906 20.042969 151.710938 19.191406 151.710938 18.335938 C 151.710938 17.484375 151.753906 16.632812 151.835938 15.78125 C 151.921875 14.929688 152.046875 14.085938 152.214844 13.25 C 152.378906 12.414062 152.585938 11.585938 152.835938 10.769531 C 153.085938 9.949219 153.371094 9.148438 153.699219 8.359375 C 154.027344 7.570312 154.390625 6.800781 154.792969 6.046875 C 155.199219 5.292969 155.636719 4.5625 156.113281 3.851562 C 156.585938 3.144531 157.09375 2.457031 157.636719 1.796875 C 158.179688 1.140625 158.753906 0.507812 159.359375 -0.0976562 Z M 167.640625 28.542969 C 167.246094 28.152344 166.878906 27.742188 166.53125 27.308594 C 166.1875 26.878906 165.867188 26.425781 165.574219 25.957031 C 165.28125 25.488281 165.015625 25.003906 164.777344 24.503906 C 164.539062 24.003906 164.332031 23.492188 164.152344 22.96875 C 163.972656 22.445312 163.824219 21.914062 163.707031 21.371094 C 163.585938 20.832031 163.5 20.285156 163.445312 19.734375 C 163.390625 19.183594 163.363281 18.632812 163.371094 18.078125 C 163.378906 17.527344 163.417969 16.976562 163.492188 16.425781 C 163.5625 15.878906 163.664062 15.335938 163.796875 14.796875 C 163.929688 14.261719 164.09375 13.734375 164.289062 13.214844 C 164.480469 12.695312 164.703125 12.191406 164.957031 11.699219 C 165.207031 11.203125 165.488281 10.726562 165.792969 10.265625 C 166.101562 9.804688 166.433594 9.363281 166.789062 8.941406 C 167.144531 8.519531 167.527344 8.117188 167.929688 7.738281 C 168.332031 7.359375 168.757812 7.003906 169.199219 6.675781 C 169.644531 6.34375 170.105469 6.039062 170.582031 5.761719 C 171.0625 5.484375 171.554688 5.234375 172.0625 5.015625 C 172.570312 4.792969 173.089844 4.601562 173.617188 4.441406 C 174.148438 4.277344 174.683594 4.148438 175.226562 4.046875 C 175.773438 3.949219 176.320312 3.878906 176.871094 3.84375 C 177.425781 3.804688 177.976562 3.800781 178.53125 3.828125 C 179.082031 3.851562 179.632812 3.910156 180.179688 4 C 180.726562 4.089844 181.265625 4.210938 181.796875 4.359375 C 182.328125 4.511719 182.851562 4.691406 183.363281 4.902344 C 183.875 5.113281 184.371094 5.355469 184.855469 5.621094 C 185.339844 5.890625 185.808594 6.1875 186.257812 6.507812 C 186.707031 6.828125 187.136719 7.175781 187.546875 7.546875 C 187.960938 7.917969 188.347656 8.3125 188.710938 8.726562 C 189.078125 9.144531 189.417969 9.578125 189.734375 10.03125 C 190.050781 10.488281 190.335938 10.957031 190.597656 11.445312 C 190.859375 11.933594 191.09375 12.4375 191.296875 12.949219 C 191.5 13.464844 191.675781 13.988281 191.816406 14.523438 C 191.960938 15.058594 192.074219 15.597656 192.15625 16.144531 C 192.238281 16.695312 192.289062 17.242188 192.304688 17.796875 C 192.324219 18.351562 192.3125 18.902344 192.265625 19.453125 C 192.222656 20.003906 192.144531 20.550781 192.039062 21.09375 C 191.929688 21.636719 191.792969 22.171875 191.625 22.699219 C 191.453125 23.226562 191.257812 23.742188 191.027344 24.246094 C 190.800781 24.75 190.542969 25.242188 190.257812 25.714844 C 189.976562 26.191406 189.664062 26.648438 189.328125 27.085938 C 188.992188 27.527344 188.628906 27.945312 188.246094 28.34375 C 187.859375 28.738281 187.453125 29.113281 187.027344 29.464844 C 186.597656 29.816406 186.152344 30.140625 185.6875 30.441406 C 185.222656 30.742188 184.742188 31.015625 184.246094 31.257812 C 183.75 31.503906 183.242188 31.71875 182.71875 31.90625 C 182.199219 32.09375 181.667969 32.25 181.128906 32.375 C 180.589844 32.5 180.046875 32.59375 179.496094 32.660156 C 178.949219 32.722656 178.394531 32.753906 177.84375 32.753906 C 175.925781 32.757812 174.082031 32.394531 172.3125 31.667969 C 170.539062 30.9375 168.976562 29.894531 167.621094 28.539062 Z M 167.640625 28.542969 " fill-opacity="1" fill-rule="nonzero"/></g><g clip-path="url(#2a62a8b5bd)"><path fill="#fadd00" d="M 367.863281 310.03125 L 360.074219 310.03125 L 336.40625 279.15625 L 336.40625 252.199219 L 344.722656 252.199219 C 345.429688 252.195312 346.117188 252.070312 346.78125 251.820312 C 347.445312 251.570312 348.046875 251.210938 348.578125 250.742188 C 349.113281 250.273438 349.546875 249.726562 349.882812 249.101562 C 350.21875 248.472656 350.433594 247.808594 350.523438 247.105469 L 365.757812 178.4375 C 365.847656 178.015625 365.894531 177.585938 365.890625 177.148438 C 365.886719 176.714844 365.835938 176.285156 365.738281 175.859375 C 365.636719 175.4375 365.492188 175.027344 365.300781 174.636719 C 365.113281 174.246094 364.878906 173.882812 364.609375 173.542969 C 364.335938 173.203125 364.027344 172.898438 363.6875 172.628906 C 363.347656 172.355469 362.980469 172.128906 362.585938 171.9375 C 362.195312 171.75 361.785156 171.609375 361.363281 171.511719 C 360.9375 171.414062 360.507812 171.367188 360.074219 171.367188 L 360.074219 171.339844 L 339.136719 171.339844 C 339.605469 167.417969 340.148438 163.507812 340.863281 159.699219 C 341.621094 155.601562 342.570312 151.570312 343.625 147.644531 C 347 147.222656 350 145.929688 352.625 143.761719 C 354.800781 141.980469 356.691406 139.933594 358.289062 137.621094 C 359.890625 135.308594 361.144531 132.820312 362.042969 130.15625 C 362.816406 127.667969 363.359375 125.128906 363.664062 122.539062 C 363.96875 119.953125 364.035156 117.359375 363.863281 114.757812 C 363.6875 112.15625 363.277344 109.59375 362.632812 107.070312 C 361.984375 104.546875 361.113281 102.101562 360.015625 99.738281 C 339.746094 107.007812 327.160156 120.910156 328.308594 133.386719 C 328.515625 135.273438 328.988281 137.09375 329.71875 138.847656 C 330.449219 140.601562 331.414062 142.21875 332.609375 143.695312 C 331.410156 148.144531 330.300781 152.78125 329.417969 157.609375 C 329 159.882812 328.664062 162.15625 328.328125 164.429688 C 326.175781 150.542969 322.492188 137.074219 317.285156 124.019531 C 318.472656 122.621094 319.40625 121.070312 320.09375 119.371094 C 320.777344 117.667969 321.179688 115.902344 321.296875 114.074219 C 321.496094 111.269531 321.3125 108.492188 320.75 105.738281 C 320.1875 102.984375 319.269531 100.355469 317.988281 97.855469 C 316.84375 95.113281 315.367188 92.5625 313.558594 90.203125 C 311.753906 87.84375 309.675781 85.753906 307.328125 83.933594 C 304.65625 81.949219 301.753906 80.402344 298.621094 79.289062 C 295.484375 78.175781 292.257812 77.546875 288.933594 77.398438 C 286.523438 82.507812 285.167969 87.882812 284.863281 93.519531 C 284.570312 98.648438 285.195312 103.660156 286.746094 108.554688 C 287.507812 111.699219 288.761719 114.632812 290.515625 117.355469 C 292.265625 120.074219 294.417969 122.433594 296.964844 124.429688 C 299.839844 126.4375 303.003906 127.753906 306.457031 128.375 C 311.96875 142.21875 315.601562 156.535156 317.363281 171.332031 L 301.058594 171.332031 C 300.675781 171.332031 300.292969 171.371094 299.917969 171.445312 C 299.542969 171.523438 299.175781 171.632812 298.824219 171.78125 C 298.46875 171.929688 298.132812 172.109375 297.8125 172.320312 C 297.496094 172.535156 297.199219 172.777344 296.929688 173.046875 C 296.65625 173.320312 296.414062 173.613281 296.203125 173.933594 C 295.988281 174.25 295.808594 174.585938 295.660156 174.941406 C 295.511719 175.296875 295.402344 175.660156 295.324219 176.035156 C 295.25 176.414062 295.210938 176.792969 295.210938 177.175781 C 295.210938 177.785156 295.300781 178.378906 295.480469 178.960938 L 310.714844 247.59375 C 310.855469 248.242188 311.101562 248.847656 311.449219 249.414062 C 311.800781 249.976562 312.230469 250.464844 312.746094 250.882812 C 313.265625 251.296875 313.835938 251.617188 314.460938 251.835938 C 315.085938 252.058594 315.730469 252.167969 316.390625 252.171875 L 316.390625 252.199219 L 324.707031 252.199219 L 324.707031 279.15625 L 301.039062 310.03125 L 277.578125 310.03125 C 274.28125 298.527344 270.988281 287.035156 267.6875 275.546875 C 268.742188 275.300781 269.773438 274.964844 270.773438 274.542969 C 271.773438 274.125 272.730469 273.621094 273.644531 273.042969 C 274.5625 272.460938 275.421875 271.804688 276.226562 271.082031 C 277.035156 270.355469 277.773438 269.566406 278.449219 268.714844 C 279.121094 267.867188 279.71875 266.964844 280.242188 266.015625 C 280.765625 265.066406 281.207031 264.078125 281.5625 263.054688 C 281.917969 262.027344 282.1875 260.980469 282.371094 259.910156 C 282.550781 258.84375 282.640625 257.765625 282.644531 256.679688 L 282.644531 228.273438 C 282.648438 227.769531 282.472656 227.339844 282.125 226.980469 L 282.097656 226.953125 C 281.738281 226.601562 281.308594 226.429688 280.808594 226.4375 L 266.015625 226.4375 C 265.511719 226.433594 265.082031 226.605469 264.722656 226.953125 L 264.695312 226.980469 C 264.34375 227.339844 264.171875 227.769531 264.179688 228.273438 L 264.179688 251.671875 C 264.179688 252.054688 264.140625 252.433594 264.066406 252.8125 C 263.992188 253.1875 263.882812 253.554688 263.734375 253.910156 C 263.585938 254.265625 263.40625 254.601562 263.195312 254.921875 C 262.980469 255.242188 262.738281 255.539062 262.46875 255.8125 C 262.195312 256.082031 261.902344 256.328125 261.582031 256.539062 C 261.261719 256.753906 260.925781 256.9375 260.570312 257.082031 C 260.21875 257.230469 259.851562 257.34375 259.476562 257.421875 C 259.097656 257.496094 258.71875 257.535156 258.332031 257.535156 L 97.304688 257.535156 C 96.921875 257.539062 96.539062 257.503906 96.160156 257.429688 C 95.78125 257.355469 95.414062 257.242188 95.058594 257.097656 C 94.699219 256.949219 94.363281 256.769531 94.039062 256.554688 C 93.71875 256.34375 93.421875 256.097656 93.152344 255.828125 C 92.878906 255.554688 92.632812 255.257812 92.421875 254.9375 C 92.207031 254.613281 92.027344 254.277344 91.878906 253.917969 C 91.734375 253.5625 91.621094 253.195312 91.546875 252.816406 C 91.476562 252.4375 91.4375 252.054688 91.441406 251.671875 L 91.441406 228.277344 C 91.445312 227.773438 91.273438 227.34375 90.921875 226.984375 L 90.894531 226.957031 C 90.535156 226.605469 90.105469 226.433594 89.605469 226.441406 L 74.824219 226.441406 C 74.324219 226.4375 73.894531 226.609375 73.535156 226.957031 L 73.507812 226.984375 C 73.15625 227.34375 72.984375 227.773438 72.992188 228.277344 L 72.992188 256.691406 C 72.996094 257.785156 73.089844 258.871094 73.277344 259.945312 C 73.464844 261.023438 73.742188 262.078125 74.109375 263.109375 C 74.472656 264.136719 74.921875 265.132812 75.453125 266.085938 C 75.984375 267.042969 76.59375 267.945312 77.277344 268.796875 C 77.964844 269.648438 78.714844 270.4375 79.53125 271.164062 C 80.347656 271.890625 81.222656 272.542969 82.148438 273.121094 C 83.074219 273.703125 84.046875 274.199219 85.054688 274.613281 C 86.066406 275.03125 87.105469 275.359375 88.171875 275.601562 C 84.800781 287.078125 81.429688 298.554688 78.0625 310.03125 L 51.1875 310.03125 L 51.1875 127.820312 L 74.847656 127.820312 C 75.089844 127.820312 75.328125 127.804688 75.570312 127.773438 C 75.808594 127.742188 76.046875 127.695312 76.28125 127.636719 C 76.515625 127.574219 76.742188 127.5 76.96875 127.414062 C 77.191406 127.324219 77.410156 127.222656 77.625 127.105469 C 77.835938 126.992188 78.039062 126.863281 78.238281 126.71875 C 78.433594 126.578125 78.621094 126.425781 78.796875 126.261719 C 78.972656 126.097656 79.140625 125.921875 79.296875 125.738281 C 79.453125 125.554688 79.59375 125.359375 79.726562 125.15625 C 79.859375 124.953125 79.976562 124.742188 80.082031 124.527344 C 80.1875 124.308594 80.277344 124.085938 80.355469 123.855469 C 80.433594 123.628906 80.496094 123.394531 80.546875 123.15625 C 80.59375 122.921875 80.628906 122.683594 80.648438 122.441406 C 80.667969 122.199219 80.671875 121.957031 80.660156 121.71875 C 80.648438 121.476562 80.621094 121.234375 80.582031 120.996094 C 80.542969 120.757812 80.484375 120.523438 80.414062 120.292969 C 80.347656 120.0625 80.261719 119.835938 80.164062 119.613281 L 65.023438 85.679688 C 64.824219 85.109375 64.539062 84.582031 64.175781 84.09375 C 63.8125 83.609375 63.382812 83.191406 62.886719 82.839844 C 62.390625 82.488281 61.855469 82.21875 61.277344 82.035156 C 60.699219 81.851562 60.109375 81.757812 59.503906 81.753906 L 31.175781 81.753906 C 30.042969 81.761719 28.996094 82.074219 28.039062 82.683594 C 27.058594 83.308594 26.332031 84.152344 25.859375 85.21875 L 10.710938 119.152344 C 10.222656 120.03125 9.980469 120.976562 9.984375 121.980469 C 9.984375 122.367188 10.019531 122.746094 10.09375 123.125 C 10.171875 123.5 10.28125 123.867188 10.429688 124.222656 C 10.574219 124.578125 10.753906 124.914062 10.96875 125.234375 C 11.179688 125.554688 11.421875 125.851562 11.695312 126.121094 C 11.964844 126.394531 12.261719 126.636719 12.578125 126.851562 C 12.898438 127.066406 13.234375 127.246094 13.589844 127.394531 C 13.945312 127.542969 14.308594 127.65625 14.6875 127.730469 C 15.0625 127.808594 15.445312 127.847656 15.828125 127.847656 L 39.492188 127.847656 L 39.492188 310.03125 L 15.828125 310.03125 C 15.449219 310.039062 15.078125 310.085938 14.707031 310.164062 C 14.339844 310.246094 13.980469 310.363281 13.632812 310.515625 C 13.289062 310.664062 12.957031 310.847656 12.648438 311.0625 C 12.335938 311.277344 12.050781 311.519531 11.785156 311.792969 C 11.519531 312.0625 11.285156 312.355469 11.078125 312.671875 C 10.871094 312.988281 10.695312 313.320312 10.554688 313.671875 C 10.410156 314.019531 10.304688 314.382812 10.230469 314.753906 C 10.15625 315.125 10.121094 315.5 10.121094 315.875 C 10.121094 316.253906 10.15625 316.628906 10.230469 317 C 10.304688 317.371094 10.410156 317.730469 10.554688 318.082031 C 10.695312 318.433594 10.871094 318.765625 11.078125 319.082031 C 11.285156 319.398438 11.519531 319.691406 11.785156 319.960938 C 12.050781 320.230469 12.335938 320.476562 12.648438 320.691406 C 12.957031 320.90625 13.289062 321.085938 13.632812 321.238281 C 13.980469 321.390625 14.339844 321.503906 14.707031 321.585938 C 15.078125 321.667969 15.449219 321.714844 15.828125 321.722656 L 367.863281 321.722656 C 368.253906 321.734375 368.640625 321.703125 369.023438 321.636719 C 369.410156 321.566406 369.78125 321.460938 370.144531 321.320312 C 370.507812 321.175781 370.855469 321 371.179688 320.789062 C 371.507812 320.578125 371.8125 320.335938 372.089844 320.0625 C 372.371094 319.789062 372.621094 319.492188 372.839844 319.171875 C 373.058594 318.847656 373.246094 318.507812 373.394531 318.148438 C 373.546875 317.789062 373.660156 317.417969 373.738281 317.035156 C 373.816406 316.652344 373.855469 316.265625 373.855469 315.875 C 373.855469 315.488281 373.816406 315.101562 373.738281 314.71875 C 373.660156 314.335938 373.546875 313.964844 373.394531 313.605469 C 373.246094 313.246094 373.058594 312.90625 372.839844 312.582031 C 372.621094 312.261719 372.371094 311.964844 372.089844 311.691406 C 371.8125 311.417969 371.507812 311.175781 371.179688 310.964844 C 370.855469 310.753906 370.507812 310.574219 370.144531 310.433594 C 369.78125 310.289062 369.410156 310.183594 369.023438 310.117188 C 368.640625 310.050781 368.253906 310.019531 367.863281 310.03125 Z M 90.222656 310.03125 C 93.660156 298.710938 97.09375 287.394531 100.527344 276.074219 L 255.5 276.074219 C 258.804688 287.394531 262.113281 298.710938 265.421875 310.03125 Z M 324.71875 310.03125 L 315.746094 310.03125 L 324.71875 298.328125 Z M 336.402344 310.03125 L 336.402344 298.328125 L 345.375 310.03125 Z M 171.980469 245.832031 L 103.148438 245.832031 L 103.148438 235.566406 L 171.980469 235.566406 Z M 183.671875 235.566406 L 252.492188 235.566406 L 252.492188 245.832031 L 183.671875 245.832031 Z M 252.492188 223.878906 L 183.671875 223.878906 L 183.671875 187.933594 C 183.675781 187.613281 183.707031 187.296875 183.769531 186.984375 C 183.832031 186.667969 183.925781 186.363281 184.050781 186.066406 C 184.171875 185.769531 184.324219 185.488281 184.5 185.222656 C 184.679688 184.957031 184.878906 184.710938 185.105469 184.484375 C 185.332031 184.257812 185.578125 184.054688 185.847656 183.875 C 186.113281 183.695312 186.394531 183.546875 186.6875 183.421875 C 186.984375 183.296875 187.289062 183.203125 187.605469 183.140625 C 187.917969 183.078125 188.234375 183.042969 188.554688 183.042969 L 247.597656 183.042969 C 248.246094 183.039062 248.867188 183.160156 249.464844 183.40625 C 250.0625 183.652344 250.589844 184.003906 251.050781 184.460938 L 251.078125 184.488281 C 251.535156 184.945312 251.886719 185.472656 252.128906 186.070312 C 252.375 186.667969 252.496094 187.292969 252.496094 187.9375 Z M 171.96875 223.878906 L 103.148438 223.878906 L 103.148438 187.925781 C 103.148438 187.277344 103.277344 186.652344 103.527344 186.054688 C 103.777344 185.457031 104.132812 184.929688 104.59375 184.472656 L 104.804688 184.253906 C 105.730469 183.441406 106.808594 183.035156 108.042969 183.035156 L 167.085938 183.035156 C 167.40625 183.035156 167.722656 183.070312 168.039062 183.132812 C 168.351562 183.195312 168.65625 183.289062 168.953125 183.414062 C 169.246094 183.535156 169.527344 183.6875 169.792969 183.867188 C 170.058594 184.042969 170.304688 184.246094 170.53125 184.472656 C 170.757812 184.699219 170.960938 184.945312 171.140625 185.210938 C 171.316406 185.476562 171.46875 185.757812 171.589844 186.054688 C 171.714844 186.347656 171.808594 186.652344 171.871094 186.96875 C 171.933594 187.28125 171.96875 187.597656 171.96875 187.917969 Z M 201.539062 112.707031 L 100.042969 112.707031 L 100.042969 73.453125 L 135.070312 54.664062 Z M 255.601562 112.707031 L 219.257812 112.707031 L 180.714844 79.042969 L 220.007812 54.355469 L 255.601562 73.453125 Z M 139.925781 43.425781 L 171.542969 71.03125 L 216.472656 42.804688 C 216.914062 42.503906 217.386719 42.265625 217.894531 42.09375 C 218.402344 41.921875 218.921875 41.820312 219.457031 41.792969 C 219.992188 41.761719 220.523438 41.808594 221.046875 41.921875 C 221.570312 42.039062 222.066406 42.226562 222.539062 42.480469 L 255.601562 60.210938 L 255.601562 -17.835938 L 100.042969 -17.835938 L 100.042969 60.214844 L 133.105469 42.480469 C 133.652344 42.1875 134.226562 41.984375 134.835938 41.875 C 135.445312 41.765625 136.054688 41.753906 136.667969 41.839844 C 137.28125 41.925781 137.867188 42.101562 138.421875 42.375 C 138.980469 42.644531 139.480469 42.996094 139.925781 43.425781 Z M 159.359375 -0.0976562 L 159.386719 -0.121094 C 159.988281 -0.726562 160.621094 -1.296875 161.277344 -1.839844 C 161.9375 -2.382812 162.625 -2.894531 163.332031 -3.367188 C 164.042969 -3.84375 164.773438 -4.28125 165.527344 -4.6875 C 166.277344 -5.089844 167.050781 -5.453125 167.839844 -5.78125 C 168.628906 -6.109375 169.429688 -6.398438 170.246094 -6.644531 C 171.066406 -6.894531 171.890625 -7.101562 172.730469 -7.269531 C 173.566406 -7.433594 174.410156 -7.5625 175.261719 -7.644531 C 176.109375 -7.726562 176.960938 -7.769531 177.816406 -7.769531 C 178.671875 -7.769531 179.523438 -7.726562 180.371094 -7.644531 C 181.222656 -7.5625 182.066406 -7.433594 182.902344 -7.269531 C 183.742188 -7.101562 184.570312 -6.894531 185.386719 -6.644531 C 186.203125 -6.398438 187.003906 -6.109375 187.792969 -5.78125 C 188.582031 -5.453125 189.355469 -5.089844 190.105469 -4.6875 C 190.859375 -4.28125 191.589844 -3.84375 192.300781 -3.367188 C 193.011719 -2.894531 193.695312 -2.382812 194.355469 -1.839844 C 195.011719 -1.296875 195.644531 -0.726562 196.246094 -0.121094 L 196.273438 -0.0976562 C 196.878906 0.507812 197.453125 1.136719 197.996094 1.796875 C 198.539062 2.457031 199.046875 3.140625 199.523438 3.851562 C 200 4.5625 200.4375 5.292969 200.839844 6.046875 C 201.246094 6.796875 201.609375 7.570312 201.9375 8.359375 C 202.265625 9.148438 202.550781 9.949219 202.800781 10.765625 C 203.050781 11.585938 203.257812 12.410156 203.421875 13.25 C 203.589844 14.085938 203.714844 14.929688 203.800781 15.78125 C 203.882812 16.632812 203.925781 17.484375 203.925781 18.335938 C 203.925781 19.191406 203.882812 20.042969 203.800781 20.894531 C 203.714844 21.742188 203.589844 22.585938 203.421875 23.425781 C 203.257812 24.261719 203.050781 25.089844 202.800781 25.90625 C 202.550781 26.722656 202.265625 27.527344 201.9375 28.316406 C 201.609375 29.105469 201.246094 29.875 200.839844 30.628906 C 200.4375 31.382812 200 32.113281 199.523438 32.820312 C 199.046875 33.53125 198.539062 34.214844 197.996094 34.875 C 197.453125 35.535156 196.878906 36.167969 196.273438 36.769531 L 196.246094 36.796875 C 195.644531 37.402344 195.011719 37.976562 194.351562 38.519531 C 193.695312 39.058594 193.007812 39.570312 192.300781 40.042969 C 191.589844 40.519531 190.859375 40.957031 190.105469 41.359375 C 189.351562 41.765625 188.582031 42.128906 187.792969 42.457031 C 187.003906 42.785156 186.203125 43.070312 185.386719 43.320312 C 184.566406 43.566406 183.742188 43.773438 182.902344 43.941406 C 182.066406 44.109375 181.222656 44.234375 180.371094 44.316406 C 179.523438 44.402344 178.671875 44.445312 177.816406 44.445312 C 176.960938 44.445312 176.109375 44.402344 175.261719 44.316406 C 174.410156 44.234375 173.566406 44.109375 172.730469 43.941406 C 171.890625 43.773438 171.066406 43.566406 170.25 43.320312 C 169.429688 43.070312 168.628906 42.785156 167.839844 42.457031 C 167.050781 42.128906 166.28125 41.765625 165.527344 41.359375 C 164.773438 40.957031 164.042969 40.519531 163.332031 40.042969 C 162.625 39.570312 161.9375 39.058594 161.28125 38.519531 C 160.621094 37.976562 159.988281 37.402344 159.386719 36.796875 L 159.359375 36.769531 C 158.753906 36.167969 158.179688 35.535156 157.636719 34.875 C 157.09375 34.214844 156.585938 33.53125 156.113281 32.820312 C 155.636719 32.113281 155.199219 31.378906 154.792969 30.628906 C 154.390625 29.875 154.027344 29.105469 153.699219 28.316406 C 153.371094 27.527344 153.085938 26.722656 152.835938 25.90625 C 152.585938 25.089844 152.378906 24.261719 152.214844 23.425781 C 152.046875 22.585938 151.921875 21.742188 151.835938 20.894531 C 151.753906 20.042969 151.710938 19.191406 151.710938 18.335938 C 151.710938 17.484375 151.753906 16.632812 151.835938 15.78125 C 151.921875 14.929688 152.046875 14.085938 152.214844 13.25 C 152.378906 12.414062 152.585938 11.585938 152.835938 10.769531 C 153.085938 9.949219 153.371094 9.148438 153.699219 8.359375 C 154.027344 7.570312 154.390625 6.800781 154.792969 6.046875 C 155.199219 5.292969 155.636719 4.5625 156.113281 3.851562 C 156.585938 3.144531 157.09375 2.457031 157.636719 1.796875 C 158.179688 1.140625 158.753906 0.507812 159.359375 -0.0976562 Z M 167.640625 28.542969 C 167.246094 28.152344 166.878906 27.742188 166.53125 27.308594 C 166.1875 26.878906 165.867188 26.425781 165.574219 25.957031 C 165.28125 25.488281 165.015625 25.003906 164.777344 24.503906 C 164.539062 24.003906 164.332031 23.492188 164.152344 22.96875 C 163.972656 22.445312 163.824219 21.914062 163.707031 21.371094 C 163.585938 20.832031 163.5 20.285156 163.445312 19.734375 C 163.390625 19.183594 163.363281 18.632812 163.371094 18.078125 C 163.378906 17.527344 163.417969 16.976562 163.492188 16.425781 C 163.5625 15.878906 163.664062 15.335938 163.796875 14.796875 C 163.929688 14.261719 164.09375 13.734375 164.289062 13.214844 C 164.480469 12.695312 164.703125 12.191406 164.957031 11.699219 C 165.207031 11.203125 165.488281 10.726562 165.792969 10.265625 C 166.101562 9.804688 166.433594 9.363281 166.789062 8.941406 C 167.144531 8.519531 167.527344 8.117188 167.929688 7.738281 C 168.332031 7.359375 168.757812 7.003906 169.199219 6.675781 C 169.644531 6.34375 170.105469 6.039062 170.582031 5.761719 C 171.0625 5.484375 171.554688 5.234375 172.0625 5.015625 C 172.570312 4.792969 173.089844 4.601562 173.617188 4.441406 C 174.148438 4.277344 174.683594 4.148438 175.226562 4.046875 C 175.773438 3.949219 176.320312 3.878906 176.871094 3.84375 C 177.425781 3.804688 177.976562 3.800781 178.53125 3.828125 C 179.082031 3.851562 179.632812 3.910156 180.179688 4 C 180.726562 4.089844 181.265625 4.210938 181.796875 4.359375 C 182.328125 4.511719 182.851562 4.691406 183.363281 4.902344 C 183.875 5.113281 184.371094 5.355469 184.855469 5.621094 C 185.339844 5.890625 185.808594 6.1875 186.257812 6.507812 C 186.707031 6.828125 187.136719 7.175781 187.546875 7.546875 C 187.960938 7.917969 188.347656 8.3125 188.710938 8.726562 C 189.078125 9.144531 189.417969 9.578125 189.734375 10.03125 C 190.050781 10.488281 190.335938 10.957031 190.597656 11.445312 C 190.859375 11.933594 191.09375 12.4375 191.296875 12.949219 C 191.5 13.464844 191.675781 13.988281 191.816406 14.523438 C 191.960938 15.058594 192.074219 15.597656 192.15625 16.144531 C 192.238281 16.695312 192.289062 17.242188 192.304688 17.796875 C 192.324219 18.351562 192.3125 18.902344 192.265625 19.453125 C 192.222656 20.003906 192.144531 20.550781 192.039062 21.09375 C 191.929688 21.636719 191.792969 22.171875 191.625 22.699219 C 191.453125 23.226562 191.257812 23.742188 191.027344 24.246094 C 190.800781 24.75 190.542969 25.242188 190.257812 25.714844 C 189.976562 26.191406 189.664062 26.648438 189.328125 27.085938 C 188.992188 27.527344 188.628906 27.945312 188.246094 28.34375 C 187.859375 28.738281 187.453125 29.113281 187.027344 29.464844 C 186.597656 29.816406 186.152344 30.140625 185.6875 30.441406 C 185.222656 30.742188 184.742188 31.015625 184.246094 31.257812 C 183.75 31.503906 183.242188 31.71875 182.71875 31.90625 C 182.199219 32.09375 181.667969 32.25 181.128906 32.375 C 180.589844 32.5 180.046875 32.59375 179.496094 32.660156 C 178.949219 32.722656 178.394531 32.753906 177.84375 32.753906 C 175.925781 32.757812 174.082031 32.394531 172.3125 31.667969 C 170.539062 30.9375 168.976562 29.894531 167.621094 28.539062 Z M 167.640625 28.542969 " fill-opacity="1" fill-rule="nonzero"/></g><g clip-path="url(#4c5408814a)"><path fill="#fadd00" d="M 367.863281 310.03125 L 360.074219 310.03125 L 336.40625 279.15625 L 336.40625 252.199219 L 344.722656 252.199219 C 345.429688 252.195312 346.117188 252.070312 346.78125 251.820312 C 347.445312 251.570312 348.046875 251.210938 348.578125 250.742188 C 349.113281 250.273438 349.546875 249.726562 349.882812 249.101562 C 350.21875 248.472656 350.433594 247.808594 350.523438 247.105469 L 365.757812 178.4375 C 365.847656 178.015625 365.894531 177.585938 365.890625 177.148438 C 365.886719 176.714844 365.835938 176.285156 365.738281 175.859375 C 365.636719 175.4375 365.492188 175.027344 365.300781 174.636719 C 365.113281 174.246094 364.878906 173.882812 364.609375 173.542969 C 364.335938 173.203125 364.027344 172.898438 363.6875 172.628906 C 363.347656 172.355469 362.980469 172.128906 362.585938 171.9375 C 362.195312 171.75 361.785156 171.609375 361.363281 171.511719 C 360.9375 171.414062 360.507812 171.367188 360.074219 171.367188 L 360.074219 171.339844 L 339.136719 171.339844 C 339.605469 167.417969 340.148438 163.507812 340.863281 159.699219 C 341.621094 155.601562 342.570312 151.570312 343.625 147.644531 C 347 147.222656 350 145.929688 352.625 143.761719 C 354.800781 141.980469 356.691406 139.933594 358.289062 137.621094 C 359.890625 135.308594 361.144531 132.820312 362.042969 130.15625 C 362.816406 127.667969 363.359375 125.128906 363.664062 122.539062 C 363.96875 119.953125 364.035156 117.359375 363.863281 114.757812 C 363.6875 112.15625 363.277344 109.59375 362.632812 107.070312 C 361.984375 104.546875 361.113281 102.101562 360.015625 99.738281 C 339.746094 107.007812 327.160156 120.910156 328.308594 133.386719 C 328.515625 135.273438 328.988281 137.09375 329.71875 138.847656 C 330.449219 140.601562 331.414062 142.21875 332.609375 143.695312 C 331.410156 148.144531 330.300781 152.78125 329.417969 157.609375 C 329 159.882812 328.664062 162.15625 328.328125 164.429688 C 326.175781 150.542969 322.492188 137.074219 317.285156 124.019531 C 318.472656 122.621094 319.40625 121.070312 320.09375 119.371094 C 320.777344 117.667969 321.179688 115.902344 321.296875 114.074219 C 321.496094 111.269531 321.3125 108.492188 320.75 105.738281 C 320.1875 102.984375 319.269531 100.355469 317.988281 97.855469 C 316.84375 95.113281 315.367188 92.5625 313.558594 90.203125 C 311.753906 87.84375 309.675781 85.753906 307.328125 83.933594 C 304.65625 81.949219 301.753906 80.402344 298.621094 79.289062 C 295.484375 78.175781 292.257812 77.546875 288.933594 77.398438 C 286.523438 82.507812 285.167969 87.882812 284.859375 93.519531 C 284.570312 98.648438 285.195312 103.660156 286.746094 108.554688 C 287.507812 111.699219 288.761719 114.632812 290.515625 117.355469 C 292.265625 120.074219 294.417969 122.433594 296.964844 124.429688 C 299.839844 126.4375 303.003906 127.753906 306.457031 128.375 C 311.96875 142.21875 315.601562 156.535156 317.363281 171.332031 L 301.058594 171.332031 C 300.675781 171.332031 300.292969 171.371094 299.917969 171.445312 C 299.542969 171.523438 299.175781 171.632812 298.824219 171.78125 C 298.46875 171.929688 298.132812 172.109375 297.8125 172.320312 C 297.496094 172.535156 297.199219 172.777344 296.929688 173.046875 C 296.65625 173.320312 296.414062 173.613281 296.203125 173.933594 C 295.988281 174.25 295.808594 174.585938 295.660156 174.941406 C 295.511719 175.296875 295.402344 175.660156 295.324219 176.035156 C 295.25 176.414062 295.210938 176.792969 295.210938 177.175781 C 295.210938 177.785156 295.300781 178.378906 295.480469 178.960938 L 310.710938 247.59375 C 310.855469 248.242188 311.101562 248.847656 311.449219 249.414062 C 311.800781 249.976562 312.230469 250.464844 312.746094 250.882812 C 313.265625 251.296875 313.835938 251.617188 314.460938 251.835938 C 315.085938 252.058594 315.730469 252.167969 316.390625 252.171875 L 316.390625 252.199219 L 324.707031 252.199219 L 324.707031 279.15625 L 301.039062 310.03125 L 277.578125 310.03125 C 274.28125 298.527344 270.988281 287.035156 267.6875 275.546875 C 268.742188 275.300781 269.773438 274.964844 270.773438 274.542969 C 271.773438 274.125 272.730469 273.621094 273.644531 273.042969 C 274.5625 272.460938 275.421875 271.804688 276.226562 271.082031 C 277.035156 270.355469 277.773438 269.566406 278.449219 268.714844 C 279.121094 267.867188 279.71875 266.964844 280.242188 266.015625 C 280.765625 265.066406 281.207031 264.078125 281.5625 263.054688 C 281.917969 262.027344 282.1875 260.980469 282.371094 259.914062 C 282.550781 258.84375 282.640625 257.765625 282.644531 256.679688 L 282.644531 228.273438 C 282.648438 227.769531 282.472656 227.339844 282.125 226.980469 L 282.097656 226.953125 C 281.738281 226.601562 281.308594 226.429688 280.808594 226.4375 L 266.015625 226.4375 C 265.511719 226.433594 265.082031 226.605469 264.722656 226.953125 L 264.695312 226.980469 C 264.34375 227.339844 264.171875 227.769531 264.179688 228.273438 L 264.179688 251.671875 C 264.179688 252.054688 264.140625 252.433594 264.066406 252.8125 C 263.992188 253.1875 263.882812 253.554688 263.734375 253.910156 C 263.585938 254.265625 263.40625 254.601562 263.195312 254.921875 C 262.980469 255.242188 262.738281 255.539062 262.46875 255.8125 C 262.195312 256.082031 261.902344 256.328125 261.582031 256.539062 C 261.261719 256.753906 260.925781 256.9375 260.570312 257.082031 C 260.21875 257.230469 259.851562 257.34375 259.476562 257.421875 C 259.097656 257.496094 258.71875 257.535156 258.332031 257.535156 L 97.304688 257.535156 C 96.921875 257.539062 96.539062 257.503906 96.160156 257.429688 C 95.78125 257.355469 95.414062 257.242188 95.058594 257.097656 C 94.699219 256.949219 94.363281 256.769531 94.039062 256.554688 C 93.71875 256.34375 93.421875 256.097656 93.152344 255.828125 C 92.878906 255.554688 92.632812 255.257812 92.421875 254.9375 C 92.207031 254.613281 92.027344 254.277344 91.878906 253.917969 C 91.734375 253.5625 91.621094 253.195312 91.546875 252.816406 C 91.476562 252.4375 91.4375 252.054688 91.441406 251.671875 L 91.441406 228.277344 C 91.445312 227.773438 91.273438 227.34375 90.921875 226.984375 L 90.894531 226.957031 C 90.535156 226.605469 90.105469 226.433594 89.605469 226.441406 L 74.824219 226.441406 C 74.324219 226.4375 73.894531 226.609375 73.535156 226.957031 L 73.507812 226.984375 C 73.15625 227.34375 72.984375 227.773438 72.992188 228.277344 L 72.992188 256.691406 C 72.996094 257.785156 73.089844 258.871094 73.277344 259.945312 C 73.464844 261.023438 73.742188 262.078125 74.109375 263.109375 C 74.472656 264.136719 74.921875 265.132812 75.453125 266.085938 C 75.984375 267.042969 76.59375 267.945312 77.277344 268.796875 C 77.964844 269.648438 78.714844 270.4375 79.53125 271.164062 C 80.347656 271.890625 81.222656 272.542969 82.148438 273.121094 C 83.074219 273.703125 84.046875 274.199219 85.054688 274.613281 C 86.066406 275.03125 87.105469 275.359375 88.171875 275.601562 C 84.800781 287.078125 81.429688 298.554688 78.0625 310.03125 L 51.1875 310.03125 L 51.1875 127.820312 L 74.847656 127.820312 C 75.089844 127.820312 75.328125 127.804688 75.570312 127.773438 C 75.808594 127.742188 76.046875 127.695312 76.28125 127.636719 C 76.515625 127.574219 76.742188 127.5 76.96875 127.414062 C 77.191406 127.324219 77.410156 127.222656 77.625 127.105469 C 77.835938 126.992188 78.039062 126.863281 78.238281 126.71875 C 78.433594 126.578125 78.621094 126.425781 78.796875 126.261719 C 78.972656 126.097656 79.140625 125.921875 79.296875 125.738281 C 79.453125 125.554688 79.59375 125.359375 79.726562 125.15625 C 79.859375 124.953125 79.976562 124.742188 80.082031 124.527344 C 80.1875 124.308594 80.277344 124.085938 80.355469 123.855469 C 80.433594 123.628906 80.496094 123.394531 80.546875 123.15625 C 80.59375 122.921875 80.628906 122.683594 80.648438 122.441406 C 80.667969 122.199219 80.671875 121.957031 80.660156 121.71875 C 80.648438 121.476562 80.621094 121.234375 80.582031 120.996094 C 80.542969 120.757812 80.484375 120.523438 80.414062 120.292969 C 80.347656 120.0625 80.261719 119.835938 80.164062 119.613281 L 65.023438 85.679688 C 64.824219 85.109375 64.539062 84.582031 64.175781 84.09375 C 63.8125 83.609375 63.382812 83.191406 62.886719 82.839844 C 62.390625 82.488281 61.855469 82.21875 61.277344 82.035156 C 60.699219 81.851562 60.109375 81.757812 59.503906 81.753906 L 31.175781 81.753906 C 30.042969 81.761719 28.996094 82.074219 28.039062 82.683594 C 27.058594 83.308594 26.332031 84.152344 25.859375 85.21875 L 10.710938 119.152344 C 10.222656 120.03125 9.980469 120.976562 9.984375 121.980469 C 9.984375 122.367188 10.019531 122.746094 10.09375 123.125 C 10.171875 123.5 10.28125 123.867188 10.429688 124.222656 C 10.574219 124.578125 10.753906 124.914062 10.96875 125.234375 C 11.179688 125.554688 11.421875 125.851562 11.695312 126.121094 C 11.964844 126.394531 12.261719 126.636719 12.578125 126.851562 C 12.898438 127.066406 13.234375 127.246094 13.589844 127.394531 C 13.945312 127.542969 14.308594 127.65625 14.6875 127.730469 C 15.0625 127.808594 15.445312 127.847656 15.828125 127.847656 L 39.492188 127.847656 L 39.492188 310.03125 L 15.828125 310.03125 C 15.449219 310.039062 15.078125 310.085938 14.707031 310.164062 C 14.339844 310.246094 13.980469 310.363281 13.632812 310.515625 C 13.289062 310.664062 12.957031 310.847656 12.648438 311.0625 C 12.335938 311.277344 12.050781 311.519531 11.785156 311.792969 C 11.519531 312.0625 11.285156 312.355469 11.078125 312.671875 C 10.871094 312.988281 10.695312 313.320312 10.554688 313.671875 C 10.410156 314.019531 10.304688 314.382812 10.230469 314.753906 C 10.15625 315.125 10.121094 315.5 10.121094 315.875 C 10.121094 316.253906 10.15625 316.628906 10.230469 317 C 10.304688 317.371094 10.410156 317.730469 10.554688 318.082031 C 10.695312 318.433594 10.871094 318.765625 11.078125 319.082031 C 11.285156 319.398438 11.519531 319.691406 11.785156 319.960938 C 12.050781 320.230469 12.335938 320.476562 12.648438 320.691406 C 12.957031 320.90625 13.289062 321.085938 13.632812 321.238281 C 13.980469 321.390625 14.339844 321.503906 14.707031 321.585938 C 15.078125 321.667969 15.449219 321.714844 15.828125 321.722656 L 367.863281 321.722656 C 368.253906 321.734375 368.640625 321.703125 369.023438 321.636719 C 369.410156 321.566406 369.78125 321.460938 370.144531 321.320312 C 370.507812 321.175781 370.855469 321 371.179688 320.789062 C 371.507812 320.578125 371.8125 320.335938 372.089844 320.0625 C 372.371094 319.789062 372.621094 319.492188 372.839844 319.171875 C 373.058594 318.847656 373.246094 318.507812 373.394531 318.148438 C 373.546875 317.789062 373.660156 317.417969 373.738281 317.035156 C 373.816406 316.652344 373.855469 316.265625 373.855469 315.875 C 373.855469 315.488281 373.816406 315.101562 373.738281 314.71875 C 373.660156 314.335938 373.546875 313.964844 373.394531 313.605469 C 373.246094 313.246094 373.058594 312.90625 372.839844 312.582031 C 372.621094 312.261719 372.371094 311.964844 372.089844 311.691406 C 371.8125 311.417969 371.507812 311.175781 371.179688 310.964844 C 370.855469 310.753906 370.507812 310.574219 370.144531 310.433594 C 369.78125 310.289062 369.410156 310.183594 369.023438 310.117188 C 368.640625 310.050781 368.253906 310.019531 367.863281 310.03125 Z M 90.222656 310.03125 C 93.660156 298.710938 97.09375 287.394531 100.527344 276.074219 L 255.5 276.074219 C 258.804688 287.394531 262.113281 298.710938 265.421875 310.03125 Z M 324.71875 310.03125 L 315.746094 310.03125 L 324.71875 298.328125 Z M 336.402344 310.03125 L 336.402344 298.328125 L 345.375 310.03125 Z M 171.980469 245.832031 L 103.148438 245.832031 L 103.148438 235.566406 L 171.980469 235.566406 Z M 183.671875 235.566406 L 252.492188 235.566406 L 252.492188 245.832031 L 183.671875 245.832031 Z M 252.492188 223.878906 L 183.671875 223.878906 L 183.671875 187.933594 C 183.675781 187.613281 183.707031 187.296875 183.769531 186.984375 C 183.832031 186.667969 183.925781 186.363281 184.050781 186.066406 C 184.171875 185.769531 184.324219 185.488281 184.5 185.222656 C 184.679688 184.957031 184.878906 184.710938 185.105469 184.484375 C 185.332031 184.257812 185.578125 184.054688 185.847656 183.875 C 186.113281 183.695312 186.394531 183.546875 186.6875 183.421875 C 186.984375 183.296875 187.289062 183.203125 187.605469 183.140625 C 187.917969 183.078125 188.234375 183.042969 188.554688 183.042969 L 247.597656 183.042969 C 248.246094 183.039062 248.867188 183.160156 249.464844 183.40625 C 250.0625 183.652344 250.589844 184.003906 251.050781 184.460938 L 251.078125 184.488281 C 251.535156 184.945312 251.886719 185.472656 252.128906 186.070312 C 252.375 186.667969 252.496094 187.292969 252.496094 187.9375 Z M 171.96875 223.878906 L 103.148438 223.878906 L 103.148438 187.925781 C 103.148438 187.277344 103.277344 186.652344 103.527344 186.054688 C 103.777344 185.457031 104.132812 184.929688 104.59375 184.472656 L 104.804688 184.253906 C 105.730469 183.441406 106.808594 183.035156 108.042969 183.035156 L 167.085938 183.035156 C 167.40625 183.035156 167.722656 183.070312 168.039062 183.132812 C 168.351562 183.195312 168.65625 183.289062 168.953125 183.414062 C 169.246094 183.535156 169.527344 183.6875 169.792969 183.867188 C 170.058594 184.042969 170.304688 184.246094 170.53125 184.472656 C 170.757812 184.699219 170.960938 184.945312 171.140625 185.210938 C 171.316406 185.476562 171.46875 185.757812 171.589844 186.054688 C 171.714844 186.347656 171.808594 186.652344 171.871094 186.96875 C 171.933594 187.28125 171.96875 187.597656 171.96875 187.917969 Z M 201.539062 112.707031 L 100.042969 112.707031 L 100.042969 73.453125 L 135.070312 54.664062 Z M 255.601562 112.707031 L 219.257812 112.707031 L 180.714844 79.042969 L 220.007812 54.355469 L 255.601562 73.453125 Z M 139.925781 43.425781 L 171.542969 71.03125 L 216.472656 42.804688 C 216.914062 42.503906 217.386719 42.265625 217.894531 42.09375 C 218.402344 41.921875 218.921875 41.820312 219.457031 41.792969 C 219.992188 41.761719 220.523438 41.808594 221.046875 41.921875 C 221.570312 42.039062 222.066406 42.226562 222.539062 42.480469 L 255.601562 60.210938 L 255.601562 -17.835938 L 100.042969 -17.835938 L 100.042969 60.214844 L 133.105469 42.480469 C 133.652344 42.1875 134.226562 41.984375 134.835938 41.875 C 135.445312 41.765625 136.054688 41.753906 136.667969 41.839844 C 137.28125 41.925781 137.867188 42.101562 138.421875 42.375 C 138.980469 42.644531 139.480469 42.996094 139.925781 43.425781 Z M 159.359375 -0.0976562 L 159.386719 -0.121094 C 159.988281 -0.726562 160.621094 -1.296875 161.277344 -1.839844 C 161.9375 -2.382812 162.625 -2.894531 163.332031 -3.367188 C 164.042969 -3.84375 164.773438 -4.28125 165.527344 -4.6875 C 166.277344 -5.089844 167.050781 -5.453125 167.839844 -5.78125 C 168.628906 -6.109375 169.429688 -6.398438 170.246094 -6.644531 C 171.066406 -6.894531 171.890625 -7.101562 172.730469 -7.269531 C 173.566406 -7.433594 174.410156 -7.5625 175.261719 -7.644531 C 176.109375 -7.726562 176.960938 -7.769531 177.816406 -7.769531 C 178.671875 -7.769531 179.523438 -7.726562 180.371094 -7.644531 C 181.222656 -7.5625 182.066406 -7.433594 182.902344 -7.269531 C 183.742188 -7.101562 184.570312 -6.894531 185.386719 -6.644531 C 186.203125 -6.398438 187.003906 -6.109375 187.792969 -5.78125 C 188.582031 -5.453125 189.355469 -5.089844 190.105469 -4.6875 C 190.859375 -4.28125 191.589844 -3.84375 192.300781 -3.367188 C 193.011719 -2.894531 193.695312 -2.382812 194.355469 -1.839844 C 195.011719 -1.296875 195.644531 -0.726562 196.246094 -0.121094 L 196.273438 -0.0976562 C 196.878906 0.507812 197.453125 1.136719 197.996094 1.796875 C 198.539062 2.457031 199.046875 3.140625 199.523438 3.851562 C 200 4.5625 200.4375 5.292969 200.839844 6.046875 C 201.246094 6.796875 201.609375 7.570312 201.9375 8.359375 C 202.265625 9.148438 202.550781 9.949219 202.800781 10.765625 C 203.050781 11.585938 203.257812 12.410156 203.421875 13.25 C 203.589844 14.085938 203.714844 14.929688 203.800781 15.78125 C 203.882812 16.632812 203.925781 17.484375 203.925781 18.335938 C 203.925781 19.191406 203.882812 20.042969 203.800781 20.894531 C 203.714844 21.742188 203.589844 22.585938 203.421875 23.425781 C 203.257812 24.261719 203.050781 25.089844 202.800781 25.90625 C 202.550781 26.722656 202.265625 27.527344 201.9375 28.316406 C 201.609375 29.105469 201.246094 29.875 200.839844 30.628906 C 200.4375 31.382812 200 32.113281 199.523438 32.820312 C 199.046875 33.53125 198.539062 34.214844 197.996094 34.875 C 197.453125 35.535156 196.878906 36.167969 196.273438 36.769531 L 196.246094 36.796875 C 195.644531 37.402344 195.011719 37.976562 194.351562 38.519531 C 193.695312 39.058594 193.007812 39.570312 192.300781 40.042969 C 191.589844 40.519531 190.859375 40.957031 190.105469 41.359375 C 189.351562 41.765625 188.582031 42.128906 187.792969 42.457031 C 187.003906 42.785156 186.203125 43.070312 185.386719 43.320312 C 184.566406 43.566406 183.742188 43.773438 182.902344 43.941406 C 182.066406 44.109375 181.222656 44.234375 180.371094 44.316406 C 179.523438 44.402344 178.671875 44.445312 177.816406 44.445312 C 176.960938 44.445312 176.109375 44.402344 175.261719 44.316406 C 174.410156 44.234375 173.566406 44.109375 172.730469 43.941406 C 171.890625 43.773438 171.066406 43.566406 170.25 43.320312 C 169.429688 43.070312 168.628906 42.785156 167.839844 42.457031 C 167.050781 42.128906 166.28125 41.765625 165.527344 41.359375 C 164.773438 40.957031 164.042969 40.519531 163.332031 40.042969 C 162.625 39.570312 161.9375 39.058594 161.28125 38.519531 C 160.621094 37.976562 159.988281 37.402344 159.386719 36.796875 L 159.359375 36.769531 C 158.753906 36.167969 158.179688 35.535156 157.636719 34.875 C 157.09375 34.214844 156.585938 33.53125 156.113281 32.820312 C 155.636719 32.113281 155.199219 31.378906 154.792969 30.628906 C 154.390625 29.875 154.027344 29.105469 153.699219 28.316406 C 153.371094 27.527344 153.082031 26.722656 152.835938 25.90625 C 152.585938 25.089844 152.378906 24.261719 152.214844 23.425781 C 152.046875 22.585938 151.921875 21.742188 151.835938 20.894531 C 151.753906 20.042969 151.710938 19.191406 151.710938 18.335938 C 151.710938 17.484375 151.753906 16.632812 151.835938 15.78125 C 151.921875 14.929688 152.046875 14.085938 152.214844 13.25 C 152.378906 12.414062 152.585938 11.585938 152.835938 10.769531 C 153.082031 9.949219 153.371094 9.148438 153.699219 8.359375 C 154.027344 7.570312 154.390625 6.800781 154.792969 6.046875 C 155.199219 5.292969 155.636719 4.5625 156.113281 3.851562 C 156.585938 3.144531 157.09375 2.457031 157.636719 1.796875 C 158.179688 1.140625 158.753906 0.507812 159.359375 -0.0976562 Z M 167.640625 28.542969 C 167.246094 28.152344 166.878906 27.742188 166.53125 27.308594 C 166.1875 26.878906 165.867188 26.425781 165.574219 25.957031 C 165.28125 25.488281 165.015625 25.003906 164.777344 24.503906 C 164.539062 24.003906 164.332031 23.492188 164.152344 22.96875 C 163.972656 22.445312 163.824219 21.914062 163.707031 21.371094 C 163.585938 20.832031 163.5 20.285156 163.445312 19.734375 C 163.390625 19.183594 163.363281 18.632812 163.371094 18.078125 C 163.378906 17.527344 163.417969 16.976562 163.492188 16.425781 C 163.5625 15.878906 163.664062 15.335938 163.796875 14.796875 C 163.929688 14.261719 164.09375 13.734375 164.289062 13.214844 C 164.480469 12.695312 164.703125 12.191406 164.957031 11.699219 C 165.207031 11.203125 165.488281 10.726562 165.792969 10.265625 C 166.101562 9.804688 166.429688 9.363281 166.789062 8.941406 C 167.144531 8.519531 167.527344 8.117188 167.929688 7.738281 C 168.332031 7.359375 168.757812 7.003906 169.199219 6.675781 C 169.644531 6.34375 170.105469 6.039062 170.582031 5.761719 C 171.0625 5.484375 171.554688 5.234375 172.0625 5.015625 C 172.570312 4.792969 173.089844 4.601562 173.617188 4.441406 C 174.148438 4.277344 174.683594 4.148438 175.226562 4.046875 C 175.773438 3.949219 176.320312 3.878906 176.871094 3.84375 C 177.425781 3.804688 177.976562 3.800781 178.53125 3.828125 C 179.082031 3.851562 179.632812 3.910156 180.179688 4 C 180.726562 4.089844 181.265625 4.210938 181.796875 4.359375 C 182.328125 4.511719 182.851562 4.691406 183.363281 4.902344 C 183.875 5.113281 184.371094 5.355469 184.855469 5.621094 C 185.339844 5.890625 185.808594 6.1875 186.257812 6.507812 C 186.707031 6.828125 187.136719 7.175781 187.546875 7.546875 C 187.960938 7.917969 188.347656 8.3125 188.710938 8.726562 C 189.078125 9.144531 189.417969 9.578125 189.734375 10.03125 C 190.050781 10.488281 190.335938 10.957031 190.597656 11.445312 C 190.859375 11.933594 191.09375 12.4375 191.296875 12.949219 C 191.5 13.464844 191.675781 13.988281 191.816406 14.523438 C 191.960938 15.058594 192.074219 15.597656 192.15625 16.144531 C 192.238281 16.695312 192.289062 17.242188 192.304688 17.796875 C 192.324219 18.351562 192.3125 18.902344 192.265625 19.453125 C 192.222656 20.003906 192.144531 20.550781 192.039062 21.09375 C 191.929688 21.636719 191.792969 22.171875 191.625 22.699219 C 191.453125 23.226562 191.257812 23.742188 191.027344 24.246094 C 190.800781 24.75 190.542969 25.242188 190.257812 25.714844 C 189.976562 26.191406 189.664062 26.648438 189.328125 27.085938 C 188.992188 27.527344 188.628906 27.945312 188.246094 28.34375 C 187.859375 28.738281 187.453125 29.113281 187.027344 29.464844 C 186.597656 29.816406 186.152344 30.140625 185.6875 30.441406 C 185.222656 30.742188 184.742188 31.015625 184.246094 31.257812 C 183.75 31.503906 183.242188 31.71875 182.71875 31.90625 C 182.199219 32.09375 181.667969 32.25 181.128906 32.375 C 180.589844 32.5 180.046875 32.59375 179.496094 32.660156 C 178.949219 32.722656 178.394531 32.753906 177.84375 32.753906 C 175.925781 32.757812 174.082031 32.394531 172.3125 31.667969 C 170.539062 30.9375 168.976562 29.894531 167.621094 28.539062 Z M 167.640625 28.542969 " fill-opacity="1" fill-rule="nonzero"/></g></svg>