<svg xmlns="http://www.w3.org/2000/svg" xmlns:xlink="http://www.w3.org/1999/xlink" width="158" zoomAndPan="magnify" viewBox="0 0 118.5 48.75" height="65" preserveAspectRatio="xMidYMid meet" version="1.0"><defs><g/><clipPath id="8a498d2115"><path d="M 50.140625 12.546875 L 93.539062 12.546875 L 93.539062 30.558594 L 50.140625 30.558594 Z M 50.140625 12.546875 " clip-rule="nonzero"/></clipPath><clipPath id="8793a0eeb7"><path d="M 50.140625 1.179688 L 59.90625 1.179688 L 59.90625 30.683594 L 50.140625 30.683594 Z M 50.140625 1.179688 " clip-rule="nonzero"/></clipPath><clipPath id="c5b482e55c"><path d="M 81.96875 0 L 93.46875 0 L 93.46875 30.59375 L 81.96875 30.59375 Z M 81.96875 0 " clip-rule="nonzero"/></clipPath></defs><path stroke-linecap="round" transform="matrix(0.746173, -0.000000000000000278, 0.000000000000000278, 0.746173, 17.519085, 29.119712)" fill="none" stroke-linejoin="miter" d="M 1.000491 1.001745 L 102.65979 1.001745 " stroke="#fad929" stroke-width="2" stroke-opacity="1" stroke-miterlimit="4"/><g clip-path="url(#8a498d2115)"><path fill="#fad929" d="M 92.601562 29.246094 L 91.679688 29.246094 L 88.886719 25.601562 L 88.886719 22.417969 L 89.871094 22.417969 C 90.042969 22.417969 90.195312 22.363281 90.324219 22.246094 C 90.457031 22.132812 90.53125 21.988281 90.554688 21.816406 L 92.351562 13.710938 C 92.375 13.609375 92.375 13.507812 92.351562 13.40625 C 92.328125 13.304688 92.28125 13.214844 92.21875 13.132812 C 92.152344 13.050781 92.074219 12.988281 91.976562 12.945312 C 91.882812 12.898438 91.785156 12.875 91.679688 12.875 L 89.210938 12.875 C 89.265625 12.410156 89.328125 11.949219 89.414062 11.5 C 89.503906 11.015625 89.617188 10.539062 89.738281 10.078125 C 90.136719 10.027344 90.492188 9.875 90.800781 9.617188 C 91.328125 9.1875 91.695312 8.652344 91.914062 8.011719 C 92.296875 6.785156 92.214844 5.585938 91.675781 4.421875 C 89.28125 5.277344 87.796875 6.921875 87.933594 8.394531 C 87.980469 8.847656 88.152344 9.253906 88.441406 9.609375 C 88.296875 10.136719 88.167969 10.683594 88.0625 11.253906 C 88.011719 11.519531 87.972656 11.789062 87.933594 12.058594 C 87.679688 10.417969 87.246094 8.828125 86.628906 7.289062 C 86.917969 6.949219 87.074219 6.558594 87.105469 6.113281 C 87.152344 5.4375 87.023438 4.800781 86.714844 4.199219 C 86.4375 3.539062 86.019531 2.992188 85.457031 2.554688 C 84.808594 2.078125 84.085938 1.820312 83.285156 1.785156 C 83 2.386719 82.839844 3.023438 82.804688 3.6875 C 82.769531 4.292969 82.84375 4.882812 83.027344 5.460938 C 83.210938 6.226562 83.613281 6.851562 84.230469 7.335938 C 84.570312 7.574219 84.945312 7.726562 85.351562 7.800781 C 86.003906 9.4375 86.433594 11.125 86.640625 12.871094 L 84.714844 12.871094 C 84.523438 12.875 84.363281 12.941406 84.226562 13.074219 C 84.09375 13.210938 84.023438 13.371094 84.023438 13.5625 C 84.023438 13.632812 84.035156 13.703125 84.058594 13.773438 L 85.855469 21.875 C 85.890625 22.03125 85.96875 22.164062 86.09375 22.261719 C 86.21875 22.363281 86.363281 22.414062 86.523438 22.414062 L 86.523438 22.417969 L 87.507812 22.417969 L 87.507812 25.601562 L 84.714844 29.246094 L 81.941406 29.246094 C 81.554688 27.886719 81.164062 26.53125 80.777344 25.175781 C 81.027344 25.117188 81.261719 25.019531 81.480469 24.878906 C 81.695312 24.742188 81.886719 24.570312 82.046875 24.367188 C 82.207031 24.167969 82.328125 23.945312 82.414062 23.699219 C 82.5 23.457031 82.539062 23.207031 82.542969 22.949219 L 82.542969 19.59375 C 82.542969 19.535156 82.519531 19.484375 82.480469 19.441406 L 82.476562 19.4375 C 82.433594 19.398438 82.382812 19.378906 82.324219 19.378906 L 80.578125 19.378906 C 80.519531 19.378906 80.46875 19.398438 80.425781 19.4375 L 80.421875 19.441406 C 80.382812 19.484375 80.359375 19.535156 80.363281 19.59375 L 80.363281 22.355469 C 80.363281 22.546875 80.292969 22.710938 80.160156 22.84375 C 80.023438 22.980469 79.863281 23.046875 79.671875 23.050781 L 60.664062 23.050781 C 60.472656 23.050781 60.308594 22.984375 60.171875 22.847656 C 60.035156 22.710938 59.96875 22.546875 59.96875 22.355469 L 59.96875 19.59375 C 59.96875 19.535156 59.949219 19.484375 59.910156 19.441406 L 59.90625 19.4375 C 59.863281 19.398438 59.8125 19.378906 59.753906 19.378906 L 58.007812 19.378906 C 57.949219 19.378906 57.898438 19.398438 57.855469 19.4375 L 57.851562 19.441406 C 57.8125 19.484375 57.792969 19.535156 57.792969 19.59375 L 57.792969 22.949219 C 57.792969 23.210938 57.835938 23.460938 57.925781 23.707031 C 58.011719 23.953125 58.136719 24.175781 58.296875 24.378906 C 58.460938 24.582031 58.652344 24.75 58.875 24.890625 C 59.09375 25.027344 59.332031 25.125 59.585938 25.179688 C 59.1875 26.535156 58.789062 27.890625 58.390625 29.246094 L 55.21875 29.246094 L 55.21875 7.734375 L 58.011719 7.734375 C 58.128906 7.734375 58.238281 7.707031 58.339844 7.652344 C 58.441406 7.597656 58.523438 7.519531 58.585938 7.421875 C 58.652344 7.324219 58.6875 7.21875 58.695312 7.101562 C 58.703125 6.984375 58.6875 6.875 58.640625 6.769531 L 56.851562 2.761719 C 56.742188 2.453125 56.527344 2.300781 56.199219 2.296875 L 52.855469 2.296875 C 52.722656 2.300781 52.597656 2.335938 52.484375 2.40625 C 52.371094 2.480469 52.285156 2.582031 52.226562 2.707031 L 50.441406 6.714844 C 50.382812 6.816406 50.355469 6.929688 50.355469 7.046875 C 50.355469 7.238281 50.421875 7.402344 50.554688 7.535156 C 50.691406 7.671875 50.851562 7.738281 51.042969 7.738281 L 53.835938 7.738281 L 53.835938 29.246094 L 51.042969 29.246094 C 50.855469 29.25 50.699219 29.320312 50.566406 29.453125 C 50.4375 29.589844 50.371094 29.75 50.371094 29.9375 C 50.371094 30.125 50.4375 30.285156 50.566406 30.417969 C 50.699219 30.550781 50.855469 30.621094 51.042969 30.625 L 92.601562 30.625 C 92.796875 30.632812 92.960938 30.566406 93.101562 30.429688 C 93.238281 30.292969 93.308594 30.128906 93.308594 29.9375 C 93.308594 29.742188 93.238281 29.578125 93.101562 29.441406 C 92.960938 29.304688 92.796875 29.242188 92.601562 29.246094 Z M 59.828125 29.246094 C 60.230469 27.910156 60.636719 26.574219 61.042969 25.238281 L 79.335938 25.238281 C 79.726562 26.574219 80.117188 27.910156 80.507812 29.246094 Z M 87.507812 29.246094 L 86.449219 29.246094 L 87.507812 27.863281 Z M 88.886719 29.246094 L 88.886719 27.863281 L 89.945312 29.246094 Z M 69.476562 21.667969 L 61.351562 21.667969 L 61.351562 20.457031 L 69.476562 20.457031 Z M 70.859375 20.457031 L 78.980469 20.457031 L 78.980469 21.667969 L 70.859375 21.667969 Z M 78.980469 19.074219 L 70.859375 19.074219 L 70.859375 14.832031 C 70.859375 14.671875 70.914062 14.539062 71.027344 14.425781 C 71.140625 14.3125 71.273438 14.257812 71.433594 14.253906 L 78.402344 14.253906 C 78.5625 14.253906 78.699219 14.308594 78.8125 14.421875 L 78.816406 14.425781 C 78.925781 14.539062 78.984375 14.675781 78.980469 14.832031 Z M 69.476562 19.074219 L 61.351562 19.074219 L 61.351562 14.832031 C 61.351562 14.671875 61.410156 14.535156 61.523438 14.425781 L 61.546875 14.398438 C 61.65625 14.300781 61.785156 14.253906 61.929688 14.253906 L 68.898438 14.253906 C 69.058594 14.253906 69.195312 14.3125 69.308594 14.425781 C 69.417969 14.535156 69.476562 14.671875 69.476562 14.832031 Z M 72.96875 5.953125 L 60.984375 5.953125 L 60.984375 1.316406 L 65.121094 -0.898438 Z M 79.347656 5.953125 L 75.058594 5.953125 L 70.507812 1.976562 L 75.148438 -0.9375 L 79.347656 1.316406 Z M 65.695312 -2.226562 L 69.425781 1.03125 L 74.730469 -2.300781 C 74.960938 -2.457031 75.199219 -2.46875 75.445312 -2.335938 L 79.347656 -0.246094 L 79.347656 -9.457031 L 60.984375 -9.457031 L 60.984375 -0.246094 L 64.886719 -2.335938 C 65.019531 -2.410156 65.160156 -2.433594 65.308594 -2.414062 C 65.457031 -2.394531 65.585938 -2.332031 65.695312 -2.226562 Z M 67.988281 -7.363281 L 67.992188 -7.367188 C 68.277344 -7.65625 68.613281 -7.878906 68.988281 -8.035156 C 69.367188 -8.191406 69.757812 -8.269531 70.167969 -8.269531 C 70.574219 -8.269531 70.96875 -8.191406 71.34375 -8.035156 C 71.722656 -7.878906 72.054688 -7.65625 72.34375 -7.367188 L 72.34375 -7.363281 C 72.632812 -7.074219 72.859375 -6.742188 73.015625 -6.367188 C 73.171875 -5.988281 73.25 -5.597656 73.25 -5.1875 C 73.25 -4.78125 73.171875 -4.386719 73.015625 -4.011719 C 72.859375 -3.632812 72.632812 -3.300781 72.34375 -3.011719 L 72.34375 -3.007812 C 72.054688 -2.71875 71.722656 -2.496094 71.34375 -2.339844 C 70.96875 -2.183594 70.574219 -2.105469 70.167969 -2.105469 C 69.757812 -2.105469 69.367188 -2.183594 68.988281 -2.339844 C 68.613281 -2.496094 68.277344 -2.71875 67.992188 -3.007812 L 67.988281 -3.011719 C 67.699219 -3.300781 67.476562 -3.632812 67.320312 -4.011719 C 67.164062 -4.386719 67.085938 -4.78125 67.085938 -5.1875 C 67.085938 -5.597656 67.164062 -5.988281 67.320312 -6.367188 C 67.476562 -6.742188 67.699219 -7.074219 67.988281 -7.363281 Z M 68.964844 -3.984375 C 68.777344 -4.171875 68.640625 -4.390625 68.554688 -4.640625 C 68.46875 -4.890625 68.441406 -5.148438 68.476562 -5.414062 C 68.507812 -5.675781 68.601562 -5.917969 68.746094 -6.140625 C 68.894531 -6.363281 69.082031 -6.539062 69.3125 -6.671875 C 69.542969 -6.804688 69.789062 -6.882812 70.054688 -6.898438 C 70.320312 -6.917969 70.574219 -6.875 70.820312 -6.773438 C 71.066406 -6.671875 71.277344 -6.523438 71.453125 -6.324219 C 71.628906 -6.121094 71.75 -5.894531 71.820312 -5.636719 C 71.886719 -5.382812 71.898438 -5.121094 71.84375 -4.863281 C 71.792969 -4.601562 71.6875 -4.367188 71.527344 -4.15625 C 71.363281 -3.945312 71.164062 -3.78125 70.925781 -3.664062 C 70.6875 -3.542969 70.433594 -3.484375 70.167969 -3.484375 C 69.699219 -3.484375 69.296875 -3.652344 68.964844 -3.984375 Z M 68.964844 -3.984375 " fill-opacity="1" fill-rule="nonzero"/></g><g clip-path="url(#8793a0eeb7)"><path fill="#fad929" d="M 92.601562 29.246094 L 91.679688 29.246094 L 88.886719 25.601562 L 88.886719 22.417969 L 89.871094 22.417969 C 90.042969 22.417969 90.195312 22.363281 90.324219 22.246094 C 90.457031 22.132812 90.53125 21.988281 90.554688 21.816406 L 92.351562 13.710938 C 92.375 13.609375 92.375 13.507812 92.351562 13.40625 C 92.328125 13.304688 92.28125 13.214844 92.21875 13.132812 C 92.152344 13.050781 92.074219 12.988281 91.976562 12.945312 C 91.882812 12.898438 91.785156 12.875 91.679688 12.875 L 89.210938 12.875 C 89.265625 12.410156 89.328125 11.949219 89.414062 11.5 C 89.503906 11.015625 89.617188 10.539062 89.738281 10.078125 C 90.136719 10.027344 90.492188 9.875 90.800781 9.617188 C 91.328125 9.1875 91.695312 8.652344 91.914062 8.011719 C 92.296875 6.785156 92.214844 5.585938 91.675781 4.421875 C 89.28125 5.277344 87.796875 6.921875 87.933594 8.394531 C 87.980469 8.847656 88.152344 9.253906 88.441406 9.609375 C 88.296875 10.136719 88.167969 10.683594 88.0625 11.253906 C 88.011719 11.519531 87.972656 11.789062 87.933594 12.058594 C 87.679688 10.417969 87.246094 8.828125 86.628906 7.289062 C 86.917969 6.949219 87.074219 6.558594 87.105469 6.113281 C 87.152344 5.4375 87.023438 4.800781 86.714844 4.199219 C 86.4375 3.539062 86.019531 2.992188 85.457031 2.554688 C 84.808594 2.078125 84.085938 1.820312 83.285156 1.785156 C 83 2.386719 82.839844 3.023438 82.804688 3.6875 C 82.769531 4.292969 82.84375 4.882812 83.027344 5.460938 C 83.210938 6.226562 83.613281 6.851562 84.230469 7.335938 C 84.570312 7.574219 84.945312 7.726562 85.351562 7.800781 C 86.003906 9.4375 86.433594 11.125 86.640625 12.871094 L 84.714844 12.871094 C 84.523438 12.875 84.363281 12.941406 84.226562 13.074219 C 84.09375 13.210938 84.023438 13.371094 84.023438 13.5625 C 84.023438 13.632812 84.035156 13.703125 84.058594 13.773438 L 85.855469 21.875 C 85.890625 22.03125 85.96875 22.164062 86.09375 22.261719 C 86.21875 22.363281 86.363281 22.414062 86.523438 22.414062 L 86.523438 22.417969 L 87.507812 22.417969 L 87.507812 25.601562 L 84.714844 29.246094 L 81.941406 29.246094 C 81.554688 27.886719 81.164062 26.53125 80.777344 25.175781 C 81.027344 25.117188 81.261719 25.019531 81.480469 24.878906 C 81.695312 24.742188 81.886719 24.570312 82.046875 24.367188 C 82.207031 24.167969 82.328125 23.945312 82.414062 23.699219 C 82.5 23.457031 82.539062 23.207031 82.542969 22.949219 L 82.542969 19.59375 C 82.542969 19.535156 82.519531 19.484375 82.480469 19.441406 L 82.476562 19.4375 C 82.433594 19.398438 82.382812 19.378906 82.324219 19.378906 L 80.578125 19.378906 C 80.519531 19.378906 80.46875 19.398438 80.425781 19.4375 L 80.421875 19.441406 C 80.382812 19.484375 80.359375 19.535156 80.363281 19.59375 L 80.363281 22.355469 C 80.363281 22.546875 80.292969 22.710938 80.160156 22.84375 C 80.023438 22.980469 79.863281 23.046875 79.671875 23.050781 L 60.664062 23.050781 C 60.472656 23.050781 60.308594 22.984375 60.171875 22.847656 C 60.035156 22.710938 59.96875 22.546875 59.96875 22.355469 L 59.96875 19.59375 C 59.96875 19.535156 59.949219 19.484375 59.910156 19.441406 L 59.90625 19.4375 C 59.863281 19.398438 59.8125 19.378906 59.753906 19.378906 L 58.007812 19.378906 C 57.949219 19.378906 57.898438 19.398438 57.855469 19.4375 L 57.851562 19.441406 C 57.8125 19.484375 57.792969 19.535156 57.792969 19.59375 L 57.792969 22.949219 C 57.792969 23.210938 57.835938 23.460938 57.925781 23.707031 C 58.011719 23.953125 58.136719 24.175781 58.296875 24.378906 C 58.460938 24.582031 58.652344 24.75 58.875 24.890625 C 59.09375 25.027344 59.332031 25.125 59.585938 25.179688 C 59.1875 26.535156 58.789062 27.890625 58.390625 29.246094 L 55.21875 29.246094 L 55.21875 7.734375 L 58.011719 7.734375 C 58.128906 7.734375 58.238281 7.707031 58.339844 7.652344 C 58.441406 7.597656 58.523438 7.519531 58.585938 7.421875 C 58.652344 7.324219 58.6875 7.21875 58.695312 7.101562 C 58.703125 6.984375 58.6875 6.875 58.640625 6.769531 L 56.851562 2.761719 C 56.742188 2.453125 56.527344 2.300781 56.199219 2.296875 L 52.855469 2.296875 C 52.722656 2.300781 52.597656 2.335938 52.484375 2.40625 C 52.371094 2.480469 52.285156 2.582031 52.226562 2.707031 L 50.441406 6.714844 C 50.382812 6.816406 50.355469 6.929688 50.355469 7.046875 C 50.355469 7.238281 50.421875 7.402344 50.554688 7.535156 C 50.691406 7.671875 50.851562 7.738281 51.042969 7.738281 L 53.835938 7.738281 L 53.835938 29.246094 L 51.042969 29.246094 C 50.855469 29.25 50.699219 29.320312 50.566406 29.453125 C 50.4375 29.589844 50.371094 29.75 50.371094 29.9375 C 50.371094 30.125 50.4375 30.285156 50.566406 30.417969 C 50.699219 30.550781 50.855469 30.621094 51.042969 30.625 L 92.601562 30.625 C 92.796875 30.632812 92.960938 30.566406 93.101562 30.429688 C 93.238281 30.292969 93.308594 30.128906 93.308594 29.9375 C 93.308594 29.742188 93.238281 29.578125 93.101562 29.441406 C 92.960938 29.304688 92.796875 29.242188 92.601562 29.246094 Z M 59.828125 29.246094 C 60.230469 27.910156 60.636719 26.574219 61.042969 25.238281 L 79.335938 25.238281 C 79.726562 26.574219 80.117188 27.910156 80.507812 29.246094 Z M 87.507812 29.246094 L 86.449219 29.246094 L 87.507812 27.863281 Z M 88.886719 29.246094 L 88.886719 27.863281 L 89.945312 29.246094 Z M 69.476562 21.667969 L 61.351562 21.667969 L 61.351562 20.457031 L 69.476562 20.457031 Z M 70.859375 20.457031 L 78.980469 20.457031 L 78.980469 21.667969 L 70.859375 21.667969 Z M 78.980469 19.074219 L 70.859375 19.074219 L 70.859375 14.832031 C 70.859375 14.671875 70.914062 14.539062 71.027344 14.425781 C 71.140625 14.3125 71.273438 14.257812 71.433594 14.253906 L 78.402344 14.253906 C 78.5625 14.253906 78.699219 14.308594 78.8125 14.421875 L 78.816406 14.425781 C 78.925781 14.539062 78.984375 14.675781 78.980469 14.832031 Z M 69.476562 19.074219 L 61.351562 19.074219 L 61.351562 14.832031 C 61.351562 14.671875 61.410156 14.535156 61.523438 14.425781 L 61.546875 14.398438 C 61.65625 14.300781 61.785156 14.253906 61.929688 14.253906 L 68.898438 14.253906 C 69.058594 14.253906 69.195312 14.3125 69.308594 14.425781 C 69.417969 14.535156 69.476562 14.671875 69.476562 14.832031 Z M 72.96875 5.953125 L 60.984375 5.953125 L 60.984375 1.316406 L 65.121094 -0.898438 Z M 79.347656 5.953125 L 75.058594 5.953125 L 70.507812 1.976562 L 75.148438 -0.9375 L 79.347656 1.316406 Z M 65.695312 -2.226562 L 69.425781 1.03125 L 74.730469 -2.300781 C 74.960938 -2.457031 75.199219 -2.46875 75.445312 -2.335938 L 79.347656 -0.246094 L 79.347656 -9.457031 L 60.984375 -9.457031 L 60.984375 -0.246094 L 64.886719 -2.335938 C 65.019531 -2.410156 65.160156 -2.433594 65.308594 -2.414062 C 65.457031 -2.394531 65.585938 -2.332031 65.695312 -2.226562 Z M 67.988281 -7.363281 L 67.992188 -7.367188 C 68.277344 -7.65625 68.613281 -7.878906 68.988281 -8.035156 C 69.367188 -8.191406 69.757812 -8.269531 70.167969 -8.269531 C 70.574219 -8.269531 70.96875 -8.191406 71.34375 -8.035156 C 71.722656 -7.878906 72.054688 -7.65625 72.34375 -7.367188 L 72.34375 -7.363281 C 72.632812 -7.074219 72.859375 -6.742188 73.015625 -6.367188 C 73.171875 -5.988281 73.25 -5.597656 73.25 -5.1875 C 73.25 -4.78125 73.171875 -4.386719 73.015625 -4.011719 C 72.859375 -3.632812 72.632812 -3.300781 72.34375 -3.011719 L 72.34375 -3.007812 C 72.054688 -2.71875 71.722656 -2.496094 71.34375 -2.339844 C 70.96875 -2.183594 70.574219 -2.105469 70.167969 -2.105469 C 69.757812 -2.105469 69.367188 -2.183594 68.988281 -2.339844 C 68.613281 -2.496094 68.277344 -2.71875 67.992188 -3.007812 L 67.988281 -3.011719 C 67.699219 -3.300781 67.476562 -3.632812 67.320312 -4.011719 C 67.164062 -4.386719 67.085938 -4.78125 67.085938 -5.1875 C 67.085938 -5.597656 67.164062 -5.988281 67.320312 -6.367188 C 67.476562 -6.742188 67.699219 -7.074219 67.988281 -7.363281 Z M 68.964844 -3.984375 C 68.777344 -4.171875 68.640625 -4.390625 68.554688 -4.640625 C 68.46875 -4.890625 68.441406 -5.148438 68.476562 -5.414062 C 68.507812 -5.675781 68.601562 -5.917969 68.746094 -6.140625 C 68.894531 -6.363281 69.082031 -6.539062 69.3125 -6.671875 C 69.542969 -6.804688 69.789062 -6.882812 70.054688 -6.898438 C 70.320312 -6.917969 70.574219 -6.875 70.820312 -6.773438 C 71.066406 -6.671875 71.277344 -6.523438 71.453125 -6.324219 C 71.628906 -6.121094 71.75 -5.894531 71.820312 -5.636719 C 71.886719 -5.382812 71.898438 -5.121094 71.84375 -4.863281 C 71.792969 -4.601562 71.6875 -4.367188 71.527344 -4.15625 C 71.363281 -3.945312 71.164062 -3.78125 70.925781 -3.664062 C 70.6875 -3.542969 70.433594 -3.484375 70.167969 -3.484375 C 69.699219 -3.484375 69.296875 -3.652344 68.964844 -3.984375 Z M 68.964844 -3.984375 " fill-opacity="1" fill-rule="nonzero"/></g><g clip-path="url(#c5b482e55c)"><path fill="#fadf10" d="M 92.601562 29.246094 L 91.679688 29.246094 L 88.886719 25.601562 L 88.886719 22.417969 L 89.871094 22.417969 C 90.042969 22.417969 90.195312 22.363281 90.324219 22.246094 C 90.457031 22.132812 90.53125 21.988281 90.554688 21.816406 L 92.351562 13.710938 C 92.375 13.609375 92.375 13.507812 92.351562 13.40625 C 92.328125 13.304688 92.28125 13.214844 92.21875 13.132812 C 92.152344 13.050781 92.070312 12.988281 91.976562 12.945312 C 91.882812 12.898438 91.785156 12.875 91.679688 12.875 L 89.210938 12.875 C 89.265625 12.410156 89.328125 11.949219 89.414062 11.5 C 89.503906 11.015625 89.617188 10.539062 89.738281 10.078125 C 90.136719 10.027344 90.492188 9.875 90.800781 9.617188 C 91.328125 9.1875 91.695312 8.652344 91.914062 8.011719 C 92.296875 6.785156 92.214844 5.585938 91.675781 4.421875 C 89.28125 5.277344 87.796875 6.921875 87.933594 8.394531 C 87.980469 8.847656 88.152344 9.253906 88.441406 9.609375 C 88.296875 10.136719 88.167969 10.683594 88.0625 11.253906 C 88.011719 11.519531 87.972656 11.789062 87.933594 12.058594 C 87.679688 10.417969 87.246094 8.828125 86.628906 7.289062 C 86.917969 6.949219 87.074219 6.558594 87.105469 6.113281 C 87.152344 5.4375 87.023438 4.800781 86.714844 4.199219 C 86.4375 3.539062 86.019531 2.992188 85.457031 2.554688 C 84.808594 2.078125 84.085938 1.820312 83.285156 1.785156 C 83 2.386719 82.839844 3.023438 82.804688 3.6875 C 82.769531 4.292969 82.84375 4.882812 83.023438 5.460938 C 83.210938 6.226562 83.613281 6.851562 84.230469 7.335938 C 84.570312 7.574219 84.945312 7.726562 85.351562 7.800781 C 86.003906 9.4375 86.433594 11.125 86.640625 12.871094 L 84.714844 12.871094 C 84.523438 12.875 84.363281 12.941406 84.226562 13.074219 C 84.09375 13.210938 84.023438 13.371094 84.023438 13.5625 C 84.023438 13.632812 84.035156 13.703125 84.058594 13.773438 L 85.855469 21.875 C 85.890625 22.03125 85.96875 22.164062 86.09375 22.261719 C 86.21875 22.363281 86.363281 22.414062 86.523438 22.414062 L 86.523438 22.417969 L 87.507812 22.417969 L 87.507812 25.601562 L 84.714844 29.246094 L 81.941406 29.246094 C 81.554688 27.886719 81.164062 26.53125 80.777344 25.175781 C 81.027344 25.117188 81.261719 25.019531 81.480469 24.878906 C 81.695312 24.742188 81.886719 24.570312 82.046875 24.367188 C 82.207031 24.167969 82.328125 23.945312 82.414062 23.699219 C 82.5 23.457031 82.539062 23.207031 82.542969 22.949219 L 82.542969 19.59375 C 82.542969 19.535156 82.519531 19.484375 82.480469 19.441406 L 82.476562 19.4375 C 82.433594 19.398438 82.382812 19.378906 82.324219 19.378906 L 80.578125 19.378906 C 80.519531 19.378906 80.46875 19.398438 80.425781 19.4375 L 80.421875 19.441406 C 80.382812 19.484375 80.359375 19.535156 80.363281 19.59375 L 80.363281 22.355469 C 80.363281 22.546875 80.292969 22.710938 80.160156 22.84375 C 80.023438 22.980469 79.863281 23.046875 79.671875 23.050781 L 60.664062 23.050781 C 60.472656 23.050781 60.308594 22.984375 60.171875 22.847656 C 60.035156 22.710938 59.96875 22.546875 59.96875 22.355469 L 59.96875 19.59375 C 59.96875 19.535156 59.949219 19.484375 59.910156 19.441406 L 59.90625 19.4375 C 59.863281 19.398438 59.8125 19.378906 59.753906 19.378906 L 58.007812 19.378906 C 57.949219 19.378906 57.898438 19.398438 57.855469 19.4375 L 57.851562 19.441406 C 57.8125 19.484375 57.792969 19.535156 57.792969 19.59375 L 57.792969 22.949219 C 57.792969 23.210938 57.835938 23.460938 57.925781 23.707031 C 58.011719 23.953125 58.136719 24.175781 58.296875 24.378906 C 58.460938 24.582031 58.652344 24.75 58.875 24.890625 C 59.09375 25.027344 59.332031 25.125 59.585938 25.179688 C 59.1875 26.535156 58.789062 27.890625 58.390625 29.246094 L 55.21875 29.246094 L 55.21875 7.734375 L 58.011719 7.734375 C 58.128906 7.734375 58.238281 7.707031 58.339844 7.652344 C 58.441406 7.597656 58.523438 7.519531 58.585938 7.421875 C 58.652344 7.324219 58.6875 7.21875 58.695312 7.101562 C 58.703125 6.984375 58.6875 6.875 58.640625 6.769531 L 56.851562 2.761719 C 56.742188 2.453125 56.527344 2.300781 56.199219 2.296875 L 52.855469 2.296875 C 52.722656 2.300781 52.597656 2.335938 52.484375 2.40625 C 52.371094 2.480469 52.285156 2.582031 52.226562 2.707031 L 50.441406 6.714844 C 50.382812 6.816406 50.355469 6.929688 50.355469 7.046875 C 50.355469 7.238281 50.421875 7.402344 50.554688 7.535156 C 50.691406 7.671875 50.851562 7.738281 51.042969 7.738281 L 53.835938 7.738281 L 53.835938 29.246094 L 51.042969 29.246094 C 50.855469 29.25 50.699219 29.320312 50.566406 29.453125 C 50.4375 29.589844 50.371094 29.75 50.371094 29.9375 C 50.371094 30.125 50.4375 30.285156 50.566406 30.417969 C 50.699219 30.550781 50.855469 30.621094 51.042969 30.625 L 92.601562 30.625 C 92.796875 30.632812 92.960938 30.566406 93.101562 30.429688 C 93.238281 30.292969 93.308594 30.128906 93.308594 29.9375 C 93.308594 29.742188 93.238281 29.578125 93.101562 29.441406 C 92.960938 29.304688 92.796875 29.242188 92.601562 29.246094 Z M 59.824219 29.246094 C 60.230469 27.910156 60.636719 26.574219 61.042969 25.238281 L 79.335938 25.238281 C 79.726562 26.574219 80.117188 27.910156 80.507812 29.246094 Z M 87.507812 29.246094 L 86.449219 29.246094 L 87.507812 27.863281 Z M 88.886719 29.246094 L 88.886719 27.863281 L 89.945312 29.246094 Z M 69.476562 21.667969 L 61.351562 21.667969 L 61.351562 20.457031 L 69.476562 20.457031 Z M 70.859375 20.457031 L 78.980469 20.457031 L 78.980469 21.667969 L 70.859375 21.667969 Z M 78.980469 19.074219 L 70.859375 19.074219 L 70.859375 14.832031 C 70.859375 14.671875 70.914062 14.539062 71.027344 14.425781 C 71.140625 14.3125 71.273438 14.257812 71.433594 14.253906 L 78.402344 14.253906 C 78.5625 14.253906 78.699219 14.308594 78.8125 14.421875 L 78.816406 14.425781 C 78.925781 14.539062 78.984375 14.675781 78.980469 14.832031 Z M 69.476562 19.074219 L 61.351562 19.074219 L 61.351562 14.832031 C 61.351562 14.671875 61.410156 14.535156 61.523438 14.425781 L 61.546875 14.398438 C 61.65625 14.300781 61.785156 14.253906 61.929688 14.253906 L 68.898438 14.253906 C 69.058594 14.253906 69.195312 14.3125 69.304688 14.425781 C 69.417969 14.535156 69.476562 14.671875 69.476562 14.832031 Z M 72.96875 5.953125 L 60.984375 5.953125 L 60.984375 1.316406 L 65.121094 -0.898438 Z M 79.347656 5.953125 L 75.058594 5.953125 L 70.507812 1.976562 L 75.148438 -0.9375 L 79.347656 1.316406 Z M 65.695312 -2.226562 L 69.425781 1.03125 L 74.730469 -2.300781 C 74.960938 -2.457031 75.199219 -2.46875 75.445312 -2.335938 L 79.347656 -0.246094 L 79.347656 -9.457031 L 60.984375 -9.457031 L 60.984375 -0.246094 L 64.886719 -2.335938 C 65.019531 -2.410156 65.160156 -2.433594 65.308594 -2.414062 C 65.457031 -2.394531 65.585938 -2.332031 65.695312 -2.226562 Z M 67.988281 -7.363281 L 67.992188 -7.367188 C 68.277344 -7.65625 68.613281 -7.878906 68.988281 -8.035156 C 69.367188 -8.191406 69.757812 -8.269531 70.167969 -8.269531 C 70.574219 -8.269531 70.96875 -8.191406 71.34375 -8.035156 C 71.722656 -7.878906 72.054688 -7.65625 72.34375 -7.367188 L 72.34375 -7.363281 C 72.632812 -7.074219 72.855469 -6.742188 73.015625 -6.367188 C 73.171875 -5.988281 73.25 -5.597656 73.25 -5.1875 C 73.25 -4.78125 73.171875 -4.386719 73.015625 -4.011719 C 72.855469 -3.632812 72.632812 -3.300781 72.34375 -3.011719 L 72.34375 -3.007812 C 72.054688 -2.71875 71.722656 -2.496094 71.34375 -2.339844 C 70.96875 -2.183594 70.574219 -2.105469 70.167969 -2.105469 C 69.757812 -2.105469 69.367188 -2.183594 68.988281 -2.339844 C 68.613281 -2.496094 68.277344 -2.71875 67.992188 -3.007812 L 67.988281 -3.011719 C 67.699219 -3.300781 67.476562 -3.632812 67.320312 -4.011719 C 67.164062 -4.386719 67.085938 -4.78125 67.085938 -5.1875 C 67.085938 -5.597656 67.164062 -5.988281 67.320312 -6.367188 C 67.476562 -6.742188 67.699219 -7.074219 67.988281 -7.363281 Z M 68.964844 -3.984375 C 68.777344 -4.171875 68.640625 -4.390625 68.554688 -4.640625 C 68.46875 -4.890625 68.441406 -5.148438 68.476562 -5.414062 C 68.507812 -5.675781 68.601562 -5.917969 68.746094 -6.140625 C 68.894531 -6.363281 69.082031 -6.539062 69.3125 -6.671875 C 69.542969 -6.804688 69.789062 -6.882812 70.054688 -6.898438 C 70.320312 -6.917969 70.574219 -6.875 70.820312 -6.773438 C 71.066406 -6.671875 71.277344 -6.523438 71.453125 -6.324219 C 71.628906 -6.121094 71.75 -5.894531 71.820312 -5.636719 C 71.886719 -5.382812 71.898438 -5.121094 71.84375 -4.863281 C 71.792969 -4.601562 71.6875 -4.367188 71.527344 -4.15625 C 71.363281 -3.945312 71.164062 -3.78125 70.925781 -3.664062 C 70.6875 -3.542969 70.433594 -3.484375 70.167969 -3.484375 C 69.699219 -3.484375 69.296875 -3.652344 68.964844 -3.984375 Z M 68.964844 -3.984375 " fill-opacity="1" fill-rule="nonzero"/></g><g fill="#fadd00" fill-opacity="1"><g transform="translate(17.519085, 40.823148)"><g><path d="M 6.046875 -6.859375 L 6.046875 0 L 5.140625 0 L 5.140625 -3.109375 L 1.65625 -3.109375 L 1.65625 0 L 0.765625 0 L 0.765625 -6.859375 L 1.65625 -6.859375 L 1.65625 -3.84375 L 5.140625 -3.84375 L 5.140625 -6.859375 Z M 6.046875 -6.859375 "/></g></g></g><g fill="#fadd00" fill-opacity="1"><g transform="translate(25.756817, 40.823148)"><g><path d="M 3.875 0.0625 C 3.226562 0.0625 2.644531 -0.0820312 2.125 -0.375 C 1.601562 -0.675781 1.1875 -1.09375 0.875 -1.625 C 0.570312 -2.164062 0.421875 -2.769531 0.421875 -3.4375 C 0.421875 -4.101562 0.570312 -4.703125 0.875 -5.234375 C 1.1875 -5.773438 1.601562 -6.191406 2.125 -6.484375 C 2.644531 -6.785156 3.226562 -6.9375 3.875 -6.9375 C 4.507812 -6.9375 5.085938 -6.785156 5.609375 -6.484375 C 6.140625 -6.191406 6.554688 -5.78125 6.859375 -5.25 C 7.160156 -4.71875 7.3125 -4.113281 7.3125 -3.4375 C 7.3125 -2.757812 7.160156 -2.15625 6.859375 -1.625 C 6.554688 -1.09375 6.140625 -0.675781 5.609375 -0.375 C 5.085938 -0.0820312 4.507812 0.0625 3.875 0.0625 Z M 3.875 -0.703125 C 4.351562 -0.703125 4.78125 -0.8125 5.15625 -1.03125 C 5.539062 -1.257812 5.84375 -1.582031 6.0625 -2 C 6.289062 -2.414062 6.40625 -2.894531 6.40625 -3.4375 C 6.40625 -3.988281 6.289062 -4.46875 6.0625 -4.875 C 5.84375 -5.289062 5.539062 -5.609375 5.15625 -5.828125 C 4.78125 -6.046875 4.351562 -6.15625 3.875 -6.15625 C 3.382812 -6.15625 2.945312 -6.046875 2.5625 -5.828125 C 2.1875 -5.609375 1.890625 -5.289062 1.671875 -4.875 C 1.453125 -4.46875 1.34375 -3.988281 1.34375 -3.4375 C 1.34375 -2.894531 1.453125 -2.414062 1.671875 -2 C 1.890625 -1.582031 2.191406 -1.257812 2.578125 -1.03125 C 2.960938 -0.8125 3.394531 -0.703125 3.875 -0.703125 Z M 3.875 -0.703125 "/></g></g></g><g fill="#fadd00" fill-opacity="1"><g transform="translate(34.919546, 40.823148)"><g><path d="M 7.71875 -6.8125 L 7.71875 0 L 6.828125 0 L 6.828125 -5.078125 L 4.5625 0 L 3.921875 0 L 1.65625 -5.09375 L 1.65625 0 L 0.765625 0 L 0.765625 -6.8125 L 1.71875 -6.8125 L 4.25 -1.1875 L 6.765625 -6.8125 Z M 7.71875 -6.8125 "/></g></g></g><g fill="#fadd00" fill-opacity="1"><g transform="translate(44.820306, 40.823148)"><g><path d="M 1.65625 -6.125 L 1.65625 -3.84375 L 4.15625 -3.84375 L 4.15625 -3.09375 L 1.65625 -3.09375 L 1.65625 -0.734375 L 4.453125 -0.734375 L 4.453125 0 L 0.765625 0 L 0.765625 -6.875 L 4.453125 -6.875 L 4.453125 -6.125 Z M 1.65625 -6.125 "/></g></g></g><g fill="#fadd00" fill-opacity="1"><g transform="translate(51.296596, 40.823148)"><g/></g></g><g fill="#fadd00" fill-opacity="1"><g transform="translate(55.352145, 40.823148)"><g><path d="M 2.890625 -6.859375 C 3.640625 -6.859375 4.285156 -6.71875 4.828125 -6.4375 C 5.378906 -6.164062 5.800781 -5.769531 6.09375 -5.25 C 6.382812 -4.726562 6.53125 -4.117188 6.53125 -3.421875 C 6.53125 -2.710938 6.382812 -2.097656 6.09375 -1.578125 C 5.800781 -1.066406 5.378906 -0.675781 4.828125 -0.40625 C 4.285156 -0.132812 3.640625 0 2.890625 0 L 0.765625 0 L 0.765625 -6.859375 Z M 2.890625 -0.734375 C 3.773438 -0.734375 4.453125 -0.96875 4.921875 -1.4375 C 5.390625 -1.90625 5.625 -2.566406 5.625 -3.421875 C 5.625 -4.273438 5.390625 -4.9375 4.921875 -5.40625 C 4.453125 -5.882812 3.773438 -6.125 2.890625 -6.125 L 1.65625 -6.125 L 1.65625 -0.734375 Z M 2.890625 -0.734375 "/></g></g></g><g fill="#fadd00" fill-opacity="1"><g transform="translate(63.737482, 40.823148)"><g><path d="M 1.65625 -6.125 L 1.65625 -3.84375 L 4.15625 -3.84375 L 4.15625 -3.09375 L 1.65625 -3.09375 L 1.65625 -0.734375 L 4.453125 -0.734375 L 4.453125 0 L 0.765625 0 L 0.765625 -6.875 L 4.453125 -6.875 L 4.453125 -6.125 Z M 1.65625 -6.125 "/></g></g></g><g fill="#fadd00" fill-opacity="1"><g transform="translate(70.213772, 40.823148)"><g><path d="M 0.421875 -3.4375 C 0.421875 -4.101562 0.570312 -4.703125 0.875 -5.234375 C 1.175781 -5.773438 1.585938 -6.195312 2.109375 -6.5 C 2.628906 -6.800781 3.207031 -6.953125 3.84375 -6.953125 C 4.59375 -6.953125 5.242188 -6.769531 5.796875 -6.40625 C 6.359375 -6.039062 6.769531 -5.53125 7.03125 -4.875 L 5.953125 -4.875 C 5.765625 -5.289062 5.488281 -5.609375 5.125 -5.828125 C 4.769531 -6.046875 4.34375 -6.15625 3.84375 -6.15625 C 3.363281 -6.15625 2.929688 -6.046875 2.546875 -5.828125 C 2.171875 -5.609375 1.875 -5.289062 1.65625 -4.875 C 1.445312 -4.46875 1.34375 -3.988281 1.34375 -3.4375 C 1.34375 -2.894531 1.445312 -2.414062 1.65625 -2 C 1.875 -1.59375 2.171875 -1.273438 2.546875 -1.046875 C 2.929688 -0.828125 3.363281 -0.71875 3.84375 -0.71875 C 4.34375 -0.71875 4.769531 -0.828125 5.125 -1.046875 C 5.488281 -1.265625 5.765625 -1.582031 5.953125 -2 L 7.03125 -2 C 6.769531 -1.34375 6.359375 -0.832031 5.796875 -0.46875 C 5.242188 -0.113281 4.59375 0.0625 3.84375 0.0625 C 3.207031 0.0625 2.628906 -0.0859375 2.109375 -0.390625 C 1.585938 -0.691406 1.175781 -1.109375 0.875 -1.640625 C 0.570312 -2.171875 0.421875 -2.769531 0.421875 -3.4375 Z M 0.421875 -3.4375 "/></g></g></g><g fill="#fadd00" fill-opacity="1"><g transform="translate(79.238733, 40.823148)"><g><path d="M 3.875 0.0625 C 3.226562 0.0625 2.644531 -0.0820312 2.125 -0.375 C 1.601562 -0.675781 1.1875 -1.09375 0.875 -1.625 C 0.570312 -2.164062 0.421875 -2.769531 0.421875 -3.4375 C 0.421875 -4.101562 0.570312 -4.703125 0.875 -5.234375 C 1.1875 -5.773438 1.601562 -6.191406 2.125 -6.484375 C 2.644531 -6.785156 3.226562 -6.9375 3.875 -6.9375 C 4.507812 -6.9375 5.085938 -6.785156 5.609375 -6.484375 C 6.140625 -6.191406 6.554688 -5.78125 6.859375 -5.25 C 7.160156 -4.71875 7.3125 -4.113281 7.3125 -3.4375 C 7.3125 -2.757812 7.160156 -2.15625 6.859375 -1.625 C 6.554688 -1.09375 6.140625 -0.675781 5.609375 -0.375 C 5.085938 -0.0820312 4.507812 0.0625 3.875 0.0625 Z M 3.875 -0.703125 C 4.351562 -0.703125 4.78125 -0.8125 5.15625 -1.03125 C 5.539062 -1.257812 5.84375 -1.582031 6.0625 -2 C 6.289062 -2.414062 6.40625 -2.894531 6.40625 -3.4375 C 6.40625 -3.988281 6.289062 -4.46875 6.0625 -4.875 C 5.84375 -5.289062 5.539062 -5.609375 5.15625 -5.828125 C 4.78125 -6.046875 4.351562 -6.15625 3.875 -6.15625 C 3.382812 -6.15625 2.945312 -6.046875 2.5625 -5.828125 C 2.1875 -5.609375 1.890625 -5.289062 1.671875 -4.875 C 1.453125 -4.46875 1.34375 -3.988281 1.34375 -3.4375 C 1.34375 -2.894531 1.453125 -2.414062 1.671875 -2 C 1.890625 -1.582031 2.191406 -1.257812 2.578125 -1.03125 C 2.960938 -0.8125 3.394531 -0.703125 3.875 -0.703125 Z M 3.875 -0.703125 "/></g></g></g><g fill="#fadd00" fill-opacity="1"><g transform="translate(88.401462, 40.823148)"><g><path d="M 4.375 0 L 2.734375 -2.8125 L 1.65625 -2.8125 L 1.65625 0 L 0.765625 0 L 0.765625 -6.859375 L 2.96875 -6.859375 C 3.488281 -6.859375 3.925781 -6.769531 4.28125 -6.59375 C 4.644531 -6.414062 4.914062 -6.175781 5.09375 -5.875 C 5.269531 -5.570312 5.359375 -5.226562 5.359375 -4.84375 C 5.359375 -4.375 5.21875 -3.957031 4.9375 -3.59375 C 4.664062 -3.226562 4.257812 -2.988281 3.71875 -2.875 L 5.4375 0 Z M 1.65625 -3.53125 L 2.96875 -3.53125 C 3.457031 -3.53125 3.820312 -3.648438 4.0625 -3.890625 C 4.3125 -4.128906 4.4375 -4.445312 4.4375 -4.84375 C 4.4375 -5.25 4.316406 -5.5625 4.078125 -5.78125 C 3.835938 -6.007812 3.46875 -6.125 2.96875 -6.125 L 1.65625 -6.125 Z M 1.65625 -3.53125 "/></g></g></g></svg>